<?xml version="1.0" standalone="no"?>
<!DOCTYPE svg PUBLIC "-//W3C//DTD SVG 20010904//EN"
 "http://www.w3.org/TR/2001/REC-SVG-20010904/DTD/svg10.dtd">
<svg version="1.0" xmlns="http://www.w3.org/2000/svg"
 width="1894.000000pt" height="733.000000pt" viewBox="0 0 1894.000000 733.000000"
 preserveAspectRatio="xMidYMid meet">

<g transform="translate(0.000000,733.000000) scale(0.100000,-0.100000)"
fill="#000000" stroke="none">
<path d="M0 3665 l0 -3665 9470 0 9470 0 0 3665 0 3665 -9470 0 -9470 0 0
-3665z m3664 2834 c58 -16 86 -49 86 -102 0 -34 -6 -50 -25 -69 l-25 -26 23
-15 c56 -37 59 -122 6 -173 -29 -28 -33 -29 -150 -32 l-119 -4 0 216 0 216 83
0 c45 0 99 -5 121 -11z m874 -113 l3 -120 57 63 c54 59 59 63 96 59 l39 -3
-68 -73 -68 -73 79 -80 79 -79 -47 0 c-44 0 -49 3 -107 68 l-61 67 0 -67 0
-68 -35 0 -35 0 0 216 0 215 33 -3 32 -3 3 -119z m842 -91 l0 -215 -30 0 c-20
0 -30 5 -30 15 0 19 -9 19 -31 -1 -49 -44 -151 -21 -191 45 -29 46 -31 139 -5
189 37 68 136 95 191 51 l26 -20 0 75 0 76 35 0 35 0 0 -215z m260 139 l0 -75
26 20 c52 41 149 19 189 -43 27 -41 31 -125 7 -178 -35 -79 -118 -110 -187
-70 -28 17 -35 18 -35 7 0 -10 -11 -15 -35 -15 l-35 0 0 215 0 215 35 0 35 0
0 -76z m770 -139 l0 -215 -35 0 -35 0 0 215 0 215 35 0 35 0 0 -215z m1001
205 c28 -15 25 -58 -5 -71 -49 -23 -95 43 -48 70 22 13 29 13 53 1z m1023 -6
c20 -20 20 -33 -1 -56 -20 -22 -41 -23 -65 -1 -22 20 -23 31 -1 55 20 22 46
23 67 2z m1776 -199 l0 -215 -30 0 c-23 0 -30 4 -30 20 0 18 -2 18 -36 -5 -64
-43 -144 -24 -186 44 -29 46 -31 139 -5 189 37 68 136 95 191 51 l26 -20 0 69
c0 38 3 72 7 75 3 4 19 7 35 7 l28 0 0 -215z m551 205 c28 -15 25 -58 -5 -71
-49 -23 -95 43 -48 70 22 13 29 13 53 1z m461 -7 c10 -9 18 -22 18 -29 0 -14
-38 -44 -57 -44 -16 0 -43 28 -43 45 0 19 28 45 47 45 9 0 25 -7 35 -17z
m1349 7 c28 -15 25 -58 -5 -71 -49 -23 -95 43 -48 70 22 13 29 13 53 1z m917
-63 l3 -67 29 15 c60 31 133 13 175 -43 30 -40 33 -156 6 -200 -46 -73 -142
-93 -197 -41 l-24 22 0 -21 c0 -18 -6 -22 -30 -22 l-30 0 0 216 0 215 33 -3
32 -3 3 -68z m686 57 c20 -20 20 -33 -1 -56 -20 -22 -41 -23 -65 -1 -22 20
-23 31 -1 55 20 22 46 23 67 2z m146 -199 l0 -215 -35 0 -35 0 0 215 0 215 35
0 35 0 0 -215z m350 0 l0 -215 -30 0 c-20 0 -30 5 -30 15 0 12 -7 11 -40 -6
-98 -51 -200 23 -200 144 0 93 47 156 124 164 34 4 54 1 81 -15 l35 -21 0 74
0 75 30 0 30 0 0 -215z m145 195 c21 -23 14 -46 -20 -62 -21 -9 -28 -8 -45 7
-24 22 -25 38 -4 59 21 22 47 20 69 -4z m-10779 -124 l34 -34 0 -126 0 -126
-30 0 c-16 0 -30 5 -30 10 0 6 -14 3 -32 -6 -46 -24 -116 -14 -145 21 -31 36
-31 94 0 123 26 25 107 43 151 35 28 -6 29 -5 22 28 -7 39 -29 59 -63 59 -26
0 -63 -32 -63 -55 0 -10 -10 -15 -30 -15 -24 0 -30 4 -30 21 0 55 59 99 134
99 41 0 53 -5 82 -34z m311 14 c36 -22 58 -52 68 -92 7 -26 5 -28 -27 -28 -29
0 -37 5 -51 35 -27 57 -103 61 -132 5 -19 -38 -19 -83 1 -126 29 -60 105 -59
130 1 13 31 19 35 50 35 34 0 36 -1 29 -27 -23 -94 -129 -140 -215 -94 -102
54 -107 222 -10 289 42 28 112 30 157 2z m631 0 c36 -22 71 -88 72 -132 l0
-28 -120 0 c-130 0 -126 2 -98 -56 24 -52 110 -51 138 1 10 19 21 25 47 25 39
0 40 -6 10 -51 -76 -114 -246 -79 -277 57 -11 46 3 120 28 148 51 58 139 73
200 36z m2052 5 c15 -8 31 -20 33 -27 4 -9 8 -10 14 -2 21 26 61 44 101 44 35
0 49 -6 73 -29 l29 -29 0 -131 0 -131 -30 0 -30 0 0 88 c0 92 -11 150 -32 164
-24 14 -65 8 -84 -13 -16 -17 -20 -40 -22 -130 l-4 -109 -29 0 -29 0 0 88 c0
92 -11 150 -32 164 -24 14 -65 8 -84 -13 -16 -17 -20 -40 -22 -130 l-4 -109
-29 0 -29 0 0 155 0 155 30 0 c21 0 30 -5 30 -16 0 -13 5 -12 26 5 31 25 83
27 124 6z m703 -14 c20 -20 22 -34 25 -156 l4 -135 -36 0 -36 0 0 112 c0 90
-3 115 -17 130 -24 27 -68 23 -92 -8 -18 -23 -21 -41 -21 -130 l0 -104 -35 0
-35 0 0 155 0 155 34 0 c19 0 36 -5 38 -12 3 -8 12 -7 29 6 33 24 113 17 142
-13z m288 13 c46 -23 59 -67 59 -194 l0 -110 -30 0 c-21 0 -30 5 -30 17 0 15
-2 15 -19 -1 -47 -42 -155 -24 -180 30 -36 80 16 134 129 134 60 0 60 0 60 30
0 65 -89 78 -118 17 -10 -20 -20 -27 -43 -27 -33 0 -35 9 -13 55 28 59 120 83
185 49z m309 -19 c0 -32 -2 -35 -29 -35 -17 0 -42 -10 -58 -24 -27 -23 -28
-29 -31 -125 l-4 -101 -29 0 -29 0 0 155 0 155 30 0 c24 0 30 -4 30 -22 0 -20
1 -20 18 -5 20 19 60 35 85 36 13 1 17 -7 17 -34z m388 15 c36 -22 71 -88 72
-132 l0 -28 -120 0 c-109 0 -119 -1 -114 -17 14 -43 29 -62 55 -74 37 -15 81
1 99 37 10 18 22 24 46 24 32 0 33 -1 23 -30 -30 -85 -159 -118 -233 -59 -59
47 -78 154 -39 221 43 75 140 101 211 58z m312 5 c33 -17 60 -52 60 -77 0 -29
-58 -24 -69 6 -22 56 -130 46 -119 -11 2 -12 19 -23 48 -31 114 -32 125 -37
138 -65 55 -116 -155 -190 -242 -86 -36 43 -34 59 9 59 24 0 35 -5 35 -14 0
-21 39 -46 71 -46 15 0 37 9 50 19 37 30 16 53 -67 73 -75 18 -114 50 -114 92
0 28 35 74 64 86 34 14 105 11 136 -5z m438 -5 c45 -27 52 -53 52 -186 l0
-114 -30 0 c-21 0 -30 5 -30 17 0 14 -2 14 -21 -3 -32 -29 -119 -26 -152 4
-32 30 -41 67 -26 104 16 40 57 58 129 58 58 0 60 1 60 27 0 33 -26 63 -54 63
-30 0 -66 -28 -66 -51 0 -15 -7 -19 -35 -19 -33 0 -35 1 -29 28 8 31 40 71 69
82 36 16 99 11 133 -10z m354 -9 l33 -29 4 -131 3 -131 -36 0 -36 0 0 108 c0
127 -11 152 -65 152 -54 0 -65 -25 -65 -152 l0 -108 -35 0 -35 0 0 155 0 155
30 0 c21 0 30 -5 30 -17 0 -14 2 -15 18 -1 44 39 111 38 154 -1z m1237 -7 c16
-16 32 -39 36 -51 6 -21 3 -23 -29 -23 -21 0 -36 5 -36 12 0 23 -34 48 -66 48
-31 0 -64 -21 -64 -40 0 -20 33 -39 80 -45 73 -10 114 -41 118 -89 6 -70 -68
-116 -164 -101 -53 8 -104 49 -104 84 0 32 43 27 78 -9 46 -46 122 -36 122 15
0 20 -7 26 -42 36 -125 33 -148 49 -148 104 0 64 47 97 133 92 49 -3 63 -8 86
-33z m451 14 c76 -52 99 -138 58 -217 -30 -58 -65 -83 -125 -88 -86 -8 -155
51 -169 143 -8 56 26 129 75 161 46 31 116 31 161 1z m362 -7 l33 -29 4 -131
3 -131 -36 0 -36 0 0 108 c0 127 -11 152 -65 152 -54 0 -65 -25 -65 -152 l0
-108 -35 0 -35 0 0 155 0 155 30 0 c21 0 30 -5 30 -17 0 -14 2 -15 18 -1 44
39 111 38 154 -1z m320 -10 c28 -31 28 -33 28 -156 l0 -125 -30 0 c-16 0 -30
4 -30 9 0 6 -16 3 -35 -5 -44 -18 -79 -18 -115 1 -57 29 -69 104 -24 146 21
20 38 24 101 27 l75 4 -6 32 c-7 36 -30 56 -63 56 -26 0 -63 -32 -63 -55 0
-10 -10 -15 -30 -15 -24 0 -30 4 -30 21 0 60 61 102 139 96 46 -3 59 -9 83
-36z m286 7 c-2 -24 -9 -34 -23 -36 -42 -7 -73 -24 -84 -48 -6 -14 -11 -65
-11 -114 l0 -90 -35 0 -35 0 0 155 0 155 35 0 c28 0 35 -4 35 -20 0 -18 2 -18
36 5 20 14 48 25 61 25 21 0 24 -4 21 -32z m398 1 c36 -33 54 -72 54 -114 l0
-35 -116 0 -116 0 7 -27 c10 -42 40 -67 79 -67 36 0 76 27 76 51 0 8 12 13 35
13 39 0 42 -8 19 -51 -17 -34 -82 -69 -129 -69 -16 0 -49 9 -73 20 -107 49
-109 234 -2 292 49 27 130 21 166 -13z m323 -5 c16 -16 32 -39 36 -51 6 -21 3
-23 -29 -23 -21 0 -36 5 -36 12 0 23 -34 48 -66 48 -31 0 -64 -21 -64 -40 0
-20 33 -39 80 -45 73 -10 114 -41 118 -89 6 -70 -68 -116 -164 -101 -53 8
-104 49 -104 84 0 32 43 27 78 -9 46 -46 122 -36 122 15 0 20 -7 26 -42 36
-125 33 -148 49 -148 104 0 64 47 97 133 92 49 -3 63 -8 86 -33z m1910 20 c39
-28 51 -73 51 -194 l0 -110 -35 0 -35 0 0 108 c0 127 -11 152 -65 152 -54 0
-65 -25 -65 -152 l0 -108 -35 0 -35 0 0 155 0 155 30 0 c21 0 30 -5 30 -17 0
-14 2 -15 18 -1 36 32 104 37 141 12z m294 -4 c30 -24 37 -25 37 -5 0 10 10
15 31 15 l30 0 -3 -180 -3 -180 -33 -32 c-31 -31 -36 -33 -107 -33 -70 0 -77
2 -105 30 -16 17 -31 41 -32 55 -3 21 2 26 24 28 21 3 30 -3 42 -26 17 -33 34
-42 77 -42 40 0 69 32 69 75 0 34 -1 35 -22 21 -39 -24 -75 -27 -117 -10 -93
37 -119 183 -47 263 41 45 115 55 159 21z m-9408 -104 l42 -109 38 112 39 111
33 0 c18 0 33 -3 33 -7 0 -3 -34 -100 -76 -215 l-77 -208 -33 0 c-40 0 -40 3
-14 73 l20 53 -60 149 c-33 82 -60 151 -60 153 0 2 16 2 36 0 l37 -3 42 -109z
m555 2 c0 -90 3 -115 17 -130 21 -23 55 -23 84 1 22 18 24 28 27 130 l4 111
34 0 34 0 0 -155 0 -155 -35 0 c-26 0 -35 4 -35 17 0 14 -2 14 -21 -3 -15 -13
-36 -19 -71 -19 -43 0 -53 4 -79 33 -29 32 -29 33 -29 157 l0 125 35 0 35 0 0
-112z m870 -43 l0 -155 -35 0 -35 0 0 155 0 155 35 0 35 0 0 -155z m1020 0 l0
-155 -35 0 -35 0 0 155 0 155 35 0 35 0 0 -155z m2035 45 c21 -61 41 -108 44
-104 3 3 22 51 42 107 l36 102 37 3 36 3 -31 -83 c-17 -46 -43 -116 -58 -156
l-26 -73 -39 3 -39 3 -57 153 -58 152 38 0 38 0 37 -110z m295 -45 l0 -155
-35 0 -35 0 0 155 0 155 35 0 35 0 0 -155z m450 0 l0 -155 -30 0 -30 0 0 155
0 155 30 0 30 0 0 -155z m1360 0 l0 -155 -35 0 -35 0 0 155 0 155 35 0 35 0 0
-155z m1260 43 c0 -123 10 -148 60 -148 51 0 65 30 68 151 l4 109 34 0 34 0 0
-155 0 -155 -35 0 c-26 0 -35 4 -35 17 0 14 -2 14 -21 -3 -15 -13 -36 -19 -71
-19 -43 0 -53 4 -79 33 -29 32 -29 33 -29 157 l0 125 35 0 35 0 0 -112z m340
-43 l0 -155 -35 0 -35 0 0 155 0 155 35 0 35 0 0 -155z m630 0 l0 -155 -30 0
-30 0 0 155 0 155 30 0 30 0 0 -155z m-9849 -465 c28 -15 25 -58 -5 -71 -49
-23 -95 43 -48 70 22 13 29 13 53 1z m1151 -7 c10 -9 18 -22 18 -29 0 -14 -38
-44 -57 -44 -16 0 -43 28 -43 45 0 19 28 45 47 45 9 0 25 -7 35 -17z m2789 7
c28 -15 25 -58 -5 -71 -49 -23 -95 43 -48 70 22 13 29 13 53 1z m1779 -205 l0
-215 -30 0 c-19 0 -30 5 -30 14 0 11 -8 10 -37 -6 -98 -51 -203 24 -203 145 0
93 47 156 124 164 34 4 54 1 81 -15 l35 -21 0 74 0 75 30 0 30 0 0 -215z m264
199 c20 -20 20 -33 -1 -56 -20 -22 -41 -23 -65 -1 -22 20 -23 31 -1 55 20 22
46 23 67 2z m1020 0 c20 -20 20 -33 -1 -56 -20 -22 -41 -23 -65 -1 -22 20 -23
31 -1 55 20 22 46 23 67 2z m937 6 c28 -15 25 -58 -5 -71 -49 -23 -95 43 -48
70 22 13 29 13 53 1z m-1141 -60 l0 -50 45 0 c41 0 45 -2 45 -25 0 -23 -4 -25
-45 -25 l-45 0 0 -95 c0 -85 2 -95 21 -105 11 -7 32 -9 45 -6 21 6 24 3 24
-23 0 -25 -5 -31 -30 -36 -44 -10 -87 3 -110 32 -17 22 -20 41 -20 129 l0 104
-35 0 c-30 0 -35 3 -35 24 0 21 6 25 33 28 31 3 32 5 35 51 3 46 4 47 38 47
l34 0 0 -50z m370 0 l0 -50 45 0 c41 0 45 -2 45 -25 0 -23 -4 -25 -45 -25
l-45 0 0 -89 c0 -103 13 -127 62 -117 26 5 28 3 28 -23 0 -63 -118 -52 -148
14 -7 14 -12 68 -12 120 l0 95 -35 0 c-31 0 -35 3 -35 25 0 22 4 25 35 25 l35
0 0 50 0 50 35 0 35 0 0 -50z m570 0 l0 -50 45 0 c41 0 45 -2 45 -25 0 -23 -4
-25 -45 -25 l-45 0 0 -89 c0 -103 13 -127 62 -117 26 5 28 3 28 -23 0 -63
-118 -52 -148 14 -7 14 -12 68 -12 120 l0 95 -35 0 c-31 0 -35 3 -35 25 0 22
4 25 35 25 l35 0 0 50 0 50 35 0 35 0 0 -50z m-7453 -60 c36 -22 58 -52 68
-92 7 -26 5 -28 -27 -28 -29 0 -37 5 -51 35 -27 57 -103 61 -132 5 -19 -38
-19 -83 1 -126 29 -60 105 -59 130 1 13 31 19 35 50 35 34 0 36 -1 29 -27 -23
-94 -129 -140 -215 -94 -102 54 -107 222 -10 289 42 28 112 30 157 2z m323 2
c54 -27 80 -74 80 -145 0 -74 -25 -119 -83 -148 -102 -52 -215 15 -225 134 -6
74 32 142 93 167 34 15 98 11 135 -8z m363 -2 c36 -28 47 -76 47 -197 l0 -103
-35 0 -35 0 0 103 c0 124 -11 151 -61 155 -60 5 -73 -20 -77 -149 l-4 -109
-29 0 -29 0 0 155 0 155 30 0 c21 0 30 -5 30 -16 0 -13 5 -12 26 5 36 28 102
28 137 1z m455 0 c35 -21 72 -74 72 -102 0 -14 -8 -18 -35 -18 -23 0 -35 5
-35 14 0 29 -41 66 -74 66 -66 0 -105 -90 -69 -160 33 -64 112 -64 136 0 9 25
17 30 44 30 41 0 44 -21 10 -71 -61 -92 -181 -90 -251 4 -30 41 -29 138 2 188
41 66 134 89 200 49z m453 -3 c36 -23 75 -89 64 -107 -3 -5 -19 -10 -34 -10
-21 0 -31 7 -44 35 -18 37 -50 52 -92 41 -50 -13 -72 -109 -38 -167 33 -55
103 -51 130 6 14 30 22 35 51 35 32 0 34 -2 27 -27 -16 -66 -77 -113 -147
-113 -147 0 -203 222 -78 308 45 30 115 30 161 -1z m318 8 c99 -51 121 -183
43 -264 -62 -65 -157 -68 -218 -7 -104 104 -39 286 104 286 24 0 56 -7 71 -15z
m368 -9 l28 -24 28 24 c39 32 105 33 142 2 33 -29 44 -79 45 -200 l0 -98 -34
0 -34 0 -3 113 c-4 128 -13 147 -65 147 -53 0 -64 -26 -64 -152 l0 -108 -34 0
-34 0 -3 113 c-4 128 -13 147 -65 147 -53 0 -64 -26 -64 -152 l0 -108 -35 0
-35 0 0 155 0 155 30 0 c21 0 30 -5 30 -16 0 -13 5 -12 26 5 38 30 104 28 141
-3z m540 4 c45 -27 63 -60 70 -123 7 -64 -20 -135 -61 -162 -42 -28 -100 -31
-141 -7 l-35 21 0 -75 0 -75 -32 3 -33 3 -3 213 -2 212 35 0 c26 0 35 -4 35
-17 0 -14 2 -15 18 -1 37 33 102 37 149 8z m306 9 c50 -26 57 -45 57 -181 l0
-128 -25 0 c-15 0 -25 6 -25 15 0 12 -6 11 -32 -5 -39 -24 -76 -25 -123 -6
-39 17 -55 42 -55 89 0 56 36 81 126 85 70 4 74 5 74 28 0 31 -33 64 -65 64
-25 0 -65 -34 -65 -57 0 -8 -12 -13 -30 -13 -20 0 -30 5 -30 15 0 28 30 74 58
89 32 18 105 20 135 5z m346 -3 c42 -22 51 -55 51 -186 l0 -120 -35 0 -35 0 0
114 c0 91 -3 118 -16 130 -24 25 -69 20 -93 -10 -18 -23 -21 -41 -21 -130 l0
-104 -35 0 -35 0 0 155 0 155 34 0 c19 0 36 -5 38 -12 3 -8 11 -7 28 5 30 21
82 22 119 3z m498 -28 c29 -30 37 -45 41 -87 l5 -51 -118 0 -117 0 7 -27 c10
-42 40 -67 79 -67 36 0 76 27 76 51 0 8 12 13 35 13 39 0 42 -8 19 -51 -17
-34 -82 -69 -129 -69 -16 0 -49 9 -73 20 -56 25 -86 88 -80 165 8 96 70 149
166 142 45 -3 59 -9 89 -39z m312 6 c16 -16 32 -39 36 -51 6 -21 3 -23 -29
-23 -25 0 -36 5 -36 14 0 21 -39 46 -72 46 -26 0 -58 -22 -58 -40 0 -20 33
-39 80 -45 73 -10 114 -41 118 -89 6 -70 -68 -116 -164 -101 -53 8 -104 49
-104 84 0 32 43 27 78 -9 46 -46 122 -36 122 15 0 25 -24 37 -102 51 -50 8
-88 45 -88 84 0 70 45 102 133 97 49 -3 63 -8 86 -33z m404 25 c50 -26 57 -45
57 -181 l0 -128 -25 0 c-15 0 -25 6 -25 15 0 12 -6 11 -32 -5 -39 -24 -76 -25
-123 -6 -39 17 -55 42 -55 89 0 56 36 81 126 85 70 4 74 5 74 28 0 31 -33 64
-65 64 -25 0 -65 -34 -65 -57 0 -8 -12 -13 -30 -13 -20 0 -30 5 -30 15 0 28
30 74 58 89 32 18 105 20 135 5z m346 -3 c42 -22 51 -55 51 -186 l0 -120 -35
0 -35 0 0 114 c0 91 -3 118 -16 130 -24 25 -69 20 -93 -10 -18 -23 -21 -41
-21 -130 l0 -104 -35 0 -35 0 0 155 0 155 34 0 c19 0 36 -5 38 -12 3 -8 11 -7
28 5 30 21 82 22 119 3z m960 0 c42 -22 51 -55 51 -186 l0 -120 -35 0 -35 0 0
112 c0 123 -10 148 -59 148 -57 0 -71 -33 -71 -159 l0 -101 -35 0 -35 0 0 155
0 155 30 0 c20 0 30 -5 30 -15 0 -12 6 -11 33 5 38 23 87 26 126 6z m307 -2
c32 -15 64 -57 64 -84 0 -5 -16 -10 -35 -10 -23 0 -35 5 -35 13 0 43 -90 62
-114 25 -19 -31 5 -51 74 -65 80 -16 110 -42 110 -94 0 -66 -73 -108 -164 -95
-50 8 -106 53 -106 87 0 31 47 24 80 -11 45 -48 126 -35 118 20 -2 18 -12 26
-38 32 -82 19 -112 30 -131 49 -21 21 -25 69 -9 99 25 48 121 65 186 34z
m1644 -2 c54 -27 80 -74 80 -146 0 -79 -29 -126 -95 -151 -103 -40 -202 23
-213 134 -12 130 113 221 228 163z m363 -2 c36 -28 47 -76 47 -197 l0 -103
-35 0 -35 0 0 103 c0 124 -11 151 -61 155 -60 5 -73 -20 -77 -149 l-4 -109
-29 0 -29 0 0 155 0 155 30 0 c21 0 30 -5 30 -16 0 -13 5 -12 26 5 36 28 102
28 137 1z m297 5 c33 -17 60 -52 60 -77 0 -29 -54 -24 -68 7 -21 46 -113 44
-120 -2 -4 -27 14 -37 92 -53 68 -14 106 -45 106 -87 0 -126 -237 -139 -274
-15 -7 20 -4 22 28 22 26 0 36 -5 41 -21 14 -43 117 -50 130 -8 10 31 -11 47
-77 60 -34 7 -72 22 -86 34 -47 40 -28 120 33 146 33 13 104 10 135 -6z
m-8880 -150 l0 -155 -35 0 -35 0 0 155 0 155 35 0 35 0 0 -155z m1140 0 l0
-155 -30 0 -30 0 0 155 0 155 30 0 30 0 0 -155z m2800 0 l0 -155 -35 0 -35 0
0 155 0 155 35 0 35 0 0 -155z m2040 0 l0 -155 -35 0 -35 0 0 155 0 155 35 0
35 0 0 -155z m1020 0 l0 -155 -35 0 -35 0 0 155 0 155 35 0 35 0 0 -155z m370
43 c0 -123 10 -148 60 -148 51 0 65 30 68 151 l4 109 34 0 34 0 0 -155 0 -155
-35 0 c-26 0 -35 4 -35 17 0 14 -2 14 -21 -3 -15 -13 -36 -19 -71 -19 -43 0
-53 4 -79 33 -29 32 -29 33 -29 157 l0 125 35 0 35 0 0 -112z m570 -43 l0
-155 -35 0 -35 0 0 155 0 155 35 0 35 0 0 -155z m1138 -77 c7 -7 12 -21 12
-33 0 -28 -19 -45 -50 -45 -30 0 -50 16 -50 41 0 40 60 65 88 37z m-5866
-1061 c13 -8 54 -17 92 -21 78 -6 151 -42 166 -81 5 -13 16 -27 24 -32 8 -5
22 -33 29 -63 15 -57 13 -78 -4 -47 -6 9 -24 24 -42 33 -18 9 -36 23 -40 30
-4 8 -15 14 -23 14 -8 0 -12 5 -9 10 3 6 -3 10 -15 10 -18 0 -19 -3 -10 -20 6
-11 18 -20 26 -20 19 0 65 -49 58 -62 -3 -5 -14 -2 -24 7 -23 20 -40 12 -40
-19 0 -23 34 -46 68 -46 14 0 15 2 2 10 -8 5 -12 11 -9 14 7 7 49 -22 49 -34
0 -5 -8 -6 -17 -3 -12 5 -15 2 -10 -9 5 -16 -17 -34 -36 -29 -5 1 -21 -6 -37
-15 -22 -14 -36 -15 -62 -8 -41 12 -49 40 -14 46 14 3 27 2 28 -2 2 -4 16 -10
31 -14 26 -6 27 -5 17 14 -6 11 -8 20 -4 20 4 0 -17 19 -46 42 -29 23 -48 44
-41 46 8 3 6 8 -5 17 -21 15 -59 8 -45 -9 5 -6 12 -22 16 -34 7 -23 7 -23 -19
-7 -27 18 -37 6 -12 -15 8 -6 12 -18 10 -25 -3 -8 4 -20 15 -27 12 -7 21 -16
21 -19 0 -8 -63 23 -84 40 -22 18 -63 -6 -63 -36 0 -42 -17 -48 -70 -25 -26
12 -42 22 -35 23 6 1 16 2 21 3 18 2 24 16 12 29 -6 8 -22 12 -36 9 -31 -5
-33 13 -3 21 21 6 21 7 3 27 -10 11 -13 20 -7 20 7 0 12 4 12 9 0 6 -16 7 -35
4 -47 -8 -44 8 8 32 42 20 56 47 26 53 -9 1 -32 -15 -51 -36 -19 -21 -44 -42
-54 -46 -18 -7 -18 -8 -1 -17 44 -25 -7 -48 -55 -25 -63 32 -120 12 -111 -38
4 -18 17 -31 44 -43 38 -16 51 -33 27 -33 -7 0 4 -9 25 -20 24 -13 56 -20 91
-20 50 0 116 -23 176 -60 8 -6 32 -20 52 -32 51 -31 49 -48 -4 -49 -99 -2
-178 -8 -196 -13 -11 -4 -23 -2 -27 4 -5 7 -11 5 -20 -7 -13 -17 -14 -17 -32
0 -21 19 -121 25 -138 8 -6 -5 -21 -11 -35 -13 -14 -1 -25 -7 -26 -13 0 -5 -4
-23 -9 -38 -9 -33 -1 -45 20 -27 33 28 61 -13 29 -44 -25 -25 -7 -39 43 -32
64 8 79 20 99 75 25 71 63 78 64 12 0 -28 39 -101 55 -101 6 0 16 5 23 12 9 9
16 8 29 -4 10 -8 35 -21 57 -28 41 -13 83 -6 142 25 18 9 33 11 44 5 21 -11
24 -60 4 -60 -11 0 -13 -11 -9 -44 l6 -44 -43 5 c-114 13 -151 23 -184 53 -33
29 -83 45 -56 18 23 -23 11 -35 -55 -54 -38 -10 -72 -19 -78 -20 -5 0 -27 -17
-48 -37 -21 -20 -45 -37 -53 -37 -8 0 -14 -6 -14 -14 0 -7 -10 -16 -21 -19
-20 -5 -21 -3 -16 29 9 55 67 136 67 94 0 -5 8 -10 18 -10 14 0 12 4 -8 19
-21 17 -23 22 -12 45 7 16 8 26 2 26 -13 0 -70 -54 -91 -87 -20 -30 -15 -88 9
-116 13 -15 14 -23 4 -51 -14 -38 -16 -76 -4 -76 11 0 46 39 61 67 16 31 48
39 73 16 15 -13 36 -18 79 -18 32 0 59 -5 59 -10 1 -13 -58 -26 -86 -20 -26 6
-59 -20 -69 -52 -4 -16 -2 -23 8 -23 8 0 29 -7 47 -16 23 -12 46 -15 81 -11
27 3 49 3 49 -2 0 -8 -94 -35 -125 -36 -34 0 -96 -28 -91 -41 9 -24 -7 -23
-37 2 -16 14 -33 24 -36 22 -4 -2 -24 -22 -45 -46 -32 -35 -36 -45 -26 -57 7
-8 23 -15 35 -15 32 0 51 -25 35 -45 -14 -17 -75 -20 -85 -5 -3 6 -17 7 -31 4
-23 -6 -36 10 -14 18 6 2 4 13 -6 26 -12 17 -19 21 -27 13 -15 -15 -27 -14
-27 3 0 8 8 21 18 28 34 24 145 149 138 155 -3 4 -12 1 -18 -5 -7 -7 -24 -12
-39 -12 -15 0 -34 -6 -41 -12 -7 -7 -25 -19 -40 -27 -15 -8 -36 -22 -45 -31
-23 -20 -110 -80 -117 -80 -8 0 4 53 15 65 13 14 11 45 -3 45 -14 -1 -58 -34
-58 -45 0 -3 -11 -18 -24 -32 -13 -14 -43 -64 -66 -110 -23 -47 -44 -82 -46
-80 -3 3 9 39 27 80 20 49 29 85 25 100 -6 24 -6 24 -46 -14 -22 -21 -40 -43
-40 -48 0 -5 -13 -23 -30 -39 -37 -37 -37 -33 -4 60 14 40 26 80 27 88 3 24
30 39 141 75 94 32 116 35 218 35 62 0 119 4 127 9 12 8 10 20 -13 75 -26 61
-28 74 -24 159 3 50 1 106 -4 122 -5 17 -12 59 -15 95 -2 36 -9 70 -13 75 -5
6 -7 49 -4 95 8 156 14 182 50 233 19 26 34 57 34 69 0 30 113 137 183 172 85
42 306 70 349 43z m1188 -49 c37 -40 39 -91 3 -96 -22 -3 -43 -22 -94 -84 -17
-21 -36 -38 -43 -39 -22 -1 -195 -236 -196 -267 0 -7 12 -17 27 -23 40 -15 63
-39 63 -64 0 -23 -25 -36 -77 -39 -23 -2 -52 -31 -53 -53 0 -15 17 -17 22 -3
2 5 19 7 40 4 41 -7 41 -17 -2 -43 -33 -19 -28 -34 15 -48 53 -17 42 -63 -22
-90 -18 -7 -33 -18 -33 -23 0 -6 -6 -10 -14 -10 -10 0 -17 16 -21 48 -4 26
-11 65 -17 87 -13 49 -2 171 22 244 19 61 57 138 71 147 5 3 9 14 9 24 0 22
22 39 28 22 5 -17 62 28 62 50 0 11 -7 18 -19 18 -22 0 -84 49 -62 50 8 0 11
6 7 17 -4 10 -4 14 0 11 9 -9 32 16 77 84 21 31 44 59 50 62 7 4 26 15 42 25
46 30 79 26 115 -11z m-820 -254 c7 -19 9 -38 6 -41 -9 -10 -18 4 -21 31 -2
14 -6 30 -10 35 -3 6 -2 11 4 11 5 0 15 -16 21 -36z m2598 -1 c40 -19 101 -81
118 -121 7 -15 17 -92 24 -172 7 -80 17 -149 21 -154 5 -6 9 6 9 27 0 20 5 37
10 37 13 0 13 -107 0 -179 -5 -31 -14 -95 -18 -143 -10 -98 -34 -155 -91 -219
-36 -41 -40 -43 -116 -50 -81 -8 -115 0 -115 25 0 8 7 16 15 20 8 3 12 12 9
19 -3 10 6 18 28 26 26 9 30 14 18 21 -10 7 -11 10 -2 10 6 0 12 5 12 10 0 6
-15 10 -33 10 -18 0 -43 8 -56 17 l-24 16 24 10 c24 10 24 10 -9 17 -40 9 -53
20 -26 21 10 1 26 2 34 3 8 2 25 3 38 4 30 3 28 18 -4 26 -33 9 -26 29 12 36
35 6 39 34 10 67 -10 12 -16 28 -13 36 3 7 -4 39 -14 70 -11 32 -20 88 -22
126 -1 38 -4 67 -6 65 -2 -2 -24 14 -47 36 -30 28 -53 40 -73 40 -32 0 -39 7
-59 60 -29 77 -30 85 -13 120 19 40 55 53 195 68 120 14 125 13 164 -5z
m-3188 -13 c0 -5 -7 -10 -15 -10 -8 0 -15 5 -15 10 0 6 7 10 15 10 8 0 15 -4
15 -10z m-1356 -17 c3 -4 33 -8 66 -9 58 -3 98 -16 112 -38 12 -18 9 -46 -5
-46 -8 0 -22 -9 -32 -20 -17 -18 -16 -20 15 -48 31 -29 31 -29 8 -36 -13 -3
-37 -6 -54 -6 -43 0 -93 -23 -127 -59 -30 -31 -23 -47 16 -36 22 7 22 7 2 -8
-21 -15 -112 -20 -121 -6 -3 5 8 9 25 9 44 0 45 14 3 34 -20 10 -50 25 -66 33
-17 10 -42 13 -66 10 -34 -4 -37 -3 -32 17 3 11 9 26 14 32 5 7 4 23 -3 40
l-12 29 -13 -45 -14 -45 5 45 c4 46 39 90 71 90 8 0 14 6 14 14 0 16 43 29
181 55 3 1 9 -2 13 -6z m2566 -93 c24 -24 26 -50 5 -50 -8 0 -15 -4 -15 -10 0
-5 -6 -10 -14 -10 -11 0 -13 11 -11 43 2 23 4 43 4 45 2 6 13 0 31 -18z
m-3542 -28 c10 -13 15 -14 20 -5 10 16 65 -10 104 -50 27 -27 98 -41 82 -16
-4 8 0 9 15 4 14 -4 21 -2 21 6 0 8 9 4 23 -8 12 -11 27 -19 33 -16 14 5 34
-35 36 -72 1 -16 -2 -55 -6 -87 -7 -51 -6 -57 13 -67 11 -6 18 -17 15 -25 -3
-7 2 -16 10 -19 22 -9 22 -130 1 -171 -8 -15 -15 -36 -15 -46 0 -26 -38 -70
-61 -70 -10 0 -19 -6 -20 -12 0 -7 -4 -3 -9 10 -5 12 -14 22 -20 22 -15 0 -12
-29 4 -46 10 -9 12 -26 9 -53 -4 -29 0 -49 17 -79 l22 -40 -38 -68 c-54 -98
-169 -290 -210 -349 -86 -125 -162 -292 -224 -495 -17 -58 -36 -109 -42 -115
-6 -7 -7 -1 -4 15 3 14 12 78 21 143 8 64 19 127 25 138 6 11 17 38 25 59 12
34 12 42 0 54 -12 12 -10 19 15 51 17 21 30 41 30 46 0 5 13 24 30 42 l29 34
-28 81 c-16 45 -39 96 -52 113 l-23 32 25 16 c101 66 318 246 308 255 -3 4
-21 -7 -40 -23 -18 -16 -36 -27 -39 -25 -3 3 3 10 13 15 21 12 23 29 3 29 -8
0 -18 -13 -24 -28 -15 -45 -38 -62 -72 -55 -23 4 -30 2 -30 -9 0 -9 -9 -27
-21 -42 -17 -21 -24 -24 -40 -15 -11 6 -35 9 -52 8 -70 -4 -82 7 -55 51 11 16
9 22 -7 34 -19 14 -19 15 8 25 16 6 34 11 40 12 7 0 -9 11 -34 23 -56 27 -84
52 -68 61 6 4 16 2 22 -4 7 -7 14 -7 24 0 7 6 38 13 70 15 73 5 135 22 128 34
-8 13 -42 13 -50 0 -8 -13 -185 -13 -205 0 -13 9 -12 12 4 25 17 13 22 13 36
0 21 -19 30 -19 30 2 0 23 29 53 52 53 10 0 18 5 18 10 0 15 -42 11 -64 -5
-11 -8 -32 -15 -48 -15 -23 0 -31 7 -43 37 -14 34 -14 41 -1 73 8 19 18 51 22
70 9 47 22 64 40 49 8 -6 14 -19 14 -28 0 -9 30 -48 68 -87 37 -38 84 -91 104
-118 33 -43 37 -53 32 -87 -4 -24 -3 -39 4 -39 10 0 22 32 22 64 0 23 -83 141
-106 150 -17 7 -12 20 9 22 7 0 21 2 32 3 27 2 106 78 99 95 -3 9 7 18 27 25
41 14 40 14 32 -6 -5 -14 -1 -13 25 6 21 14 39 20 52 16 14 -5 20 -2 20 9 0
10 9 16 24 16 14 0 28 5 31 10 6 10 -6 14 -36 11 -14 -1 -27 16 -43 59 -3 8
-4 -2 -1 -23 5 -33 3 -38 -20 -47 -39 -15 -82 -12 -89 6 -3 8 -26 24 -50 35
-37 16 -57 18 -115 13 -39 -4 -71 -10 -71 -15 0 -4 -13 -10 -30 -14 -24 -5
-30 -12 -30 -32 0 -38 -23 -23 -39 27 -13 41 -15 42 -23 21 -8 -23 -9 -23 -28
-6 -10 9 -23 14 -28 11 -5 -3 -19 2 -31 11 -17 11 -20 18 -10 23 8 6 12 29 10
72 -3 97 4 118 44 118 17 0 46 5 64 11 25 9 36 8 56 -5 23 -15 25 -15 25 0 0
14 8 15 48 10 46 -7 47 -6 26 11 -20 17 -36 47 -29 55 11 10 102 -6 113 -20z
m2786 -13 c-6 -11 -24 -2 -24 11 0 5 7 7 15 4 8 -4 12 -10 9 -15z m4083 -8
c38 -35 53 -84 53 -178 0 -50 -4 -76 -15 -86 -10 -11 -13 -26 -8 -49 6 -32 6
-33 -14 -15 -11 9 -30 17 -43 17 -23 0 -23 0 -4 14 10 8 16 17 13 21 -11 11
-79 -6 -79 -20 0 -7 -7 -18 -15 -25 -32 -27 -6 -65 62 -91 l28 -10 -21 22
c-21 21 -21 22 -3 40 11 11 24 19 29 19 12 0 14 -26 3 -33 -5 -2 -2 -2 5 -1 7
2 16 -4 19 -13 6 -15 7 -14 13 3 7 19 17 -67 25 -214 2 -41 6 -76 9 -79 3 -3
-1 -21 -9 -40 -8 -20 -15 -48 -15 -63 0 -29 -29 -66 -31 -39 0 8 -6 0 -12 -18
-12 -31 -109 -133 -128 -133 -20 0 -7 -25 35 -61 24 -21 59 -68 79 -106 34
-66 83 -215 93 -281 2 -19 11 -66 20 -105 29 -134 34 -160 38 -218 3 -49 10
-65 42 -104 29 -36 38 -55 37 -82 -1 -40 -6 -48 -27 -40 -9 4 -17 28 -21 71
-4 36 -11 66 -15 66 -9 0 -20 -60 -20 -107 0 -28 -4 -33 -24 -33 -19 0 -23 4
-19 19 3 11 -2 21 -12 25 -22 8 -35 -1 -35 -25 0 -19 -7 -19 -155 -17 -147 3
-155 4 -155 23 0 22 -28 102 -81 230 -37 91 -37 91 -46 82 -11 -12 40 -164 95
-279 1 -4 -4 -5 -14 -1 -14 5 -15 1 -9 -25 4 -22 3 -32 -5 -32 -7 0 -10 7 -6
15 3 8 2 15 -3 15 -5 0 -11 16 -13 35 -2 19 0 35 4 35 4 0 8 9 8 20 0 16 -5
19 -28 14 -19 -4 -32 -1 -42 10 -11 15 -15 12 -31 -24 -10 -22 -19 -40 -21
-40 -2 0 -4 31 -5 69 -1 37 -9 89 -18 114 -8 25 -14 49 -13 54 3 12 -25 83
-33 83 -4 0 -19 30 -34 68 -25 63 -46 92 -68 92 -6 0 -6 -14 -2 -32 19 -88 24
-109 44 -183 11 -43 19 -81 17 -82 -5 -6 -36 63 -36 80 0 9 -4 18 -9 21 -4 3
-14 27 -21 53 -7 27 -16 53 -21 58 -9 12 -51 138 -74 220 -9 33 -24 68 -33 78
-15 17 -15 19 1 28 14 8 16 18 11 47 -4 20 -9 46 -10 57 -1 11 -3 22 -3 24 -1
2 -8 -2 -16 -9 -26 -22 -28 -3 -4 39 24 43 56 57 46 20 -3 -12 1 -28 11 -38
33 -34 59 -68 78 -99 18 -32 34 -42 34 -22 0 6 -3 10 -7 10 -10 0 -43 58 -43
75 0 8 -9 19 -20 25 -11 6 -20 18 -20 26 0 9 -5 12 -12 8 -10 -6 -9 -3 0 8 13
16 42 14 42 -2 0 -5 9 -6 20 -3 30 8 74 -14 92 -45 9 -15 27 -36 39 -47 l23
-20 -18 30 c-11 17 -25 34 -33 38 -7 4 -13 13 -13 20 0 7 15 -4 32 -23 17 -19
57 -63 90 -98 32 -34 58 -67 58 -73 0 -5 5 -7 10 -4 6 4 -1 21 -16 41 -29 37
-25 56 7 36 11 -7 24 -10 30 -6 6 3 19 -2 30 -12 10 -9 19 -12 19 -6 0 6 -12
20 -26 31 -21 16 -23 23 -15 39 9 17 16 18 56 11 59 -11 69 -17 55 -34 -8 -9
-8 -15 0 -20 18 -11 0 -25 -26 -19 -19 5 -23 3 -18 -9 3 -9 18 -17 32 -19 17
-2 34 -15 47 -35 24 -39 52 -55 34 -20 -11 21 -11 21 7 5 14 -14 16 -20 6 -30
-18 -18 -15 -43 8 -63 16 -14 23 -16 32 -7 8 8 15 9 25 1 21 -18 16 11 -9 51
-11 19 -34 60 -50 90 -27 52 -27 56 -12 87 l15 33 42 -52 c41 -53 79 -89 85
-83 8 8 -11 45 -23 45 -8 0 -11 7 -8 19 11 41 -65 145 -114 157 -24 6 -31 28
-13 39 17 10 -1 27 -22 22 -14 -4 -18 -1 -14 8 3 8 1 17 -4 20 -6 4 -10 11
-10 17 0 7 6 6 15 -2 8 -7 15 -8 15 -2 0 5 -7 15 -16 23 -12 10 -17 10 -23 1
-4 -7 -15 -10 -24 -6 -10 3 -24 1 -32 -6 -12 -10 -16 -9 -21 4 -3 9 -4 25 -1
36 3 10 -1 21 -8 24 -18 7 -25 44 -9 50 8 3 13 2 13 -2 -3 -20 3 -32 16 -32 8
0 15 -7 15 -16 0 -8 4 -13 10 -9 5 3 7 12 4 19 -6 16 29 31 46 21 6 -3 14 2
18 12 8 21 21 25 75 25 26 1 41 6 47 19 18 33 12 39 -36 32 -45 -6 -124 12
-124 29 0 4 3 8 8 9 4 0 21 2 37 5 17 2 37 4 45 5 8 1 18 7 21 12 9 14 76 -53
84 -83 3 -14 18 -31 32 -37 31 -15 41 -10 23 12 -10 12 -10 23 4 58 18 47 13
99 -10 118 -8 6 -14 17 -14 25 0 15 -38 39 -47 30 -4 -3 -1 -17 5 -31 11 -24
0 -36 -13 -14 -4 5 -19 7 -34 4 -19 -4 -32 -1 -41 10 -13 15 -22 88 -21 167 0
20 -4 40 -10 44 -8 4 -7 9 1 14 32 20 -57 90 -115 90 -19 0 -35 5 -35 10 0 6
-7 10 -15 10 -8 0 -15 5 -15 10 0 6 11 10 25 10 18 0 25 5 25 19 0 10 -7 21
-15 25 -8 3 -15 12 -15 20 0 7 7 16 15 20 19 7 19 33 0 43 -12 7 -12 12 -2 33
12 23 18 25 76 23 34 -1 69 -7 77 -14 11 -9 27 -9 74 2 56 12 77 31 48 42 -7
3 -4 6 7 6 11 1 35 -12 52 -28z m-2773 4 c3 -8 12 -15 21 -15 16 0 35 -38 35
-71 0 -16 -5 -19 -20 -14 -16 5 -20 2 -20 -17 0 -13 5 -29 11 -35 8 -8 7 -17
-2 -34 l-13 -24 -7 25 c-4 14 -8 18 -8 10 -1 -12 -4 -12 -12 3 -5 9 -17 17
-26 17 -11 0 -14 6 -9 25 4 15 2 25 -5 25 -14 0 -7 42 9 48 6 2 12 -3 12 -12
0 -18 8 -20 30 -6 13 8 13 13 -2 41 -10 17 -18 35 -18 40 0 15 17 10 24 -6z
m-109 -9 c26 -19 13 -50 -18 -42 -14 3 -32 -1 -43 -9 -42 -32 -47 -4 -6 36 32
31 42 34 67 15z m6150 -2 c11 -8 33 -14 50 -14 62 0 105 -19 119 -53 21 -49
34 -117 25 -123 -5 -3 -5 -13 1 -24 7 -13 6 -19 -6 -24 -12 -5 -14 -15 -9 -49
10 -67 25 -107 40 -107 21 0 28 -19 14 -36 -6 -8 -13 -30 -15 -49 -2 -18 -13
-53 -25 -77 -12 -24 -28 -69 -35 -100 -14 -57 -47 -122 -76 -145 -12 -10 -16
-6 -27 23 -11 30 -11 38 3 53 9 10 16 23 16 29 0 6 7 18 16 27 15 15 15 18 -5
39 -11 12 -21 27 -21 33 0 6 -7 17 -16 24 -9 7 -20 24 -25 37 -5 13 -18 26
-29 29 -24 6 -36 47 -24 81 10 29 34 41 34 18 0 -9 7 -19 15 -22 8 -4 12 -10
9 -15 -11 -19 26 -8 39 11 13 18 16 19 27 5 18 -22 33 -18 20 5 -6 11 -18 20
-28 20 -9 0 -24 5 -32 10 -11 7 -7 10 17 10 17 0 39 -7 47 -16 10 -9 24 -13
36 -9 11 4 20 2 20 -4 0 -6 -4 -11 -10 -11 -5 0 -10 -7 -10 -15 0 -31 29 -15
32 18 4 42 -11 74 -42 87 -29 11 -196 17 -207 7 -4 -4 -13 7 -20 25 -10 24
-16 29 -25 20 -7 -7 -17 -12 -23 -12 -12 0 -46 70 -39 81 2 4 21 6 42 4 20 -2
31 -1 25 1 -14 6 -18 44 -5 44 5 0 9 16 10 35 2 38 -8 44 -29 19 -12 -15 -15
-14 -31 6 -10 13 -18 39 -18 61 0 35 3 39 33 47 49 13 120 11 142 -4z m-11155
-10 c0 -7 6 -17 13 -21 13 -8 47 -83 47 -104 0 -6 -6 -7 -12 -4 -7 4 10 -15
39 -42 44 -41 55 -59 78 -130 27 -85 50 -118 65 -94 4 8 6 30 3 50 -5 34 -2
39 35 65 23 15 46 25 52 21 9 -5 9 -9 1 -14 -7 -4 -1 -17 14 -33 29 -32 31
-63 9 -139 -16 -56 -35 -83 -68 -101 -13 -7 -21 -6 -27 3 -6 10 -9 8 -9 -8 0
-13 -4 -23 -10 -23 -5 0 -10 -7 -10 -15 0 -30 -61 -104 -87 -105 -17 0 -33 53
-21 74 12 21 3 46 -16 46 -22 0 -27 -15 -16 -45 8 -20 7 -27 -6 -32 -20 -7
-22 -4 -29 45 -3 28 -1 42 7 42 6 0 -8 15 -32 33 -119 89 -131 94 -122 50 4
-23 2 -25 -16 -21 -12 3 -29 -1 -39 -9 -17 -13 -17 -14 5 -8 12 4 22 2 22 -4
0 -28 -153 -24 -174 5 -9 12 -17 4 -41 -46 -18 -36 -35 -58 -43 -55 -15 6 -6
-40 14 -70 16 -23 19 -49 4 -40 -11 7 -39 68 -46 100 -52 254 -39 329 57 313
23 -4 23 -5 -6 -17 -41 -17 -65 -40 -65 -63 0 -15 5 -17 25 -12 23 6 31 -3 23
-22 -2 -3 5 -10 14 -15 24 -13 83 12 99 43 18 33 16 115 -3 134 -14 15 -22 15
-89 0 -40 -10 -78 -24 -85 -33 -10 -15 -12 -13 -18 13 -3 16 -7 55 -8 88 -2
53 0 60 27 83 25 22 35 25 82 20 29 -3 55 -1 58 4 4 5 18 9 32 9 50 0 163 44
163 63 0 23 19 33 65 33 31 1 45 -3 45 -12z m1210 -14 c0 -5 -4 -10 -10 -10
-5 0 -10 5 -10 10 0 6 5 10 10 10 6 0 10 -4 10 -10z m8684 -6 c39 -8 88 -24
108 -35 20 -10 53 -19 72 -19 l36 0 0 -46 c0 -34 9 -62 31 -102 18 -31 32 -68
31 -85 0 -17 4 -39 9 -49 7 -12 7 -24 1 -31 -5 -7 -10 -33 -10 -59 -1 -61 -14
-80 -73 -108 -39 -18 -59 -21 -94 -16 -83 11 -110 42 -60 68 24 13 24 15 9 36
-17 25 -36 30 -28 7 4 -8 3 -22 0 -30 -4 -12 -10 -14 -25 -5 -11 5 -22 6 -25
1 -11 -16 -61 -20 -77 -5 -19 17 -45 10 -52 -15 -3 -12 -18 -21 -42 -25 -46
-9 -54 -2 -29 25 l19 22 -28 -18 c-15 -10 -25 -20 -23 -23 3 -2 -1 -14 -9 -26
-8 -11 -16 -36 -16 -56 -1 -19 -3 -27 -6 -17 -2 9 -9 17 -14 17 -5 0 -9 7 -9
15 0 9 -6 12 -17 8 -11 -4 -14 -3 -9 5 4 7 1 12 -7 12 -8 0 -30 14 -47 30
l-33 31 7 107 c8 134 18 171 57 208 30 28 104 149 104 169 0 25 150 31 249 9z
m-11125 -24 c34 9 71 -1 71 -20 0 -5 10 -8 23 -8 66 4 99 -2 93 -17 -6 -17 9
-21 19 -5 10 16 67 12 87 -7 21 -19 23 -58 4 -95 -9 -17 -10 -30 -4 -36 6 -6
-8 -12 -42 -17 -43 -6 -60 -15 -93 -48 -34 -34 -40 -46 -39 -78 1 -20 6 -49
12 -64 20 -51 13 -84 -22 -105 l-33 -20 35 0 c27 0 37 -6 47 -25 10 -22 9 -25
-10 -25 -46 0 -49 -17 -5 -25 36 -6 40 -8 22 -15 -12 -5 -24 -20 -26 -35 -5
-24 -3 -26 21 -20 34 9 51 23 51 45 0 10 7 23 15 30 30 25 12 80 -27 80 -10 0
-18 5 -18 10 0 6 5 10 10 10 16 0 12 50 -5 66 -22 23 -17 124 7 124 5 0 22
-14 39 -31 24 -25 28 -34 17 -41 -9 -7 -7 -8 7 -4 68 17 95 18 101 2 11 -30
-6 -146 -22 -146 -17 0 -18 -12 -4 -26 11 -11 -26 -94 -42 -94 -5 0 -13 -11
-18 -25 -6 -14 -15 -23 -23 -19 -19 7 -51 -31 -43 -52 4 -11 2 -15 -8 -11 -10
4 -13 1 -9 -9 8 -22 -57 -44 -134 -44 -63 -1 -66 -2 -48 -16 12 -8 30 -12 43
-9 12 3 41 1 63 -5 38 -11 40 -12 23 -25 -11 -8 -36 -15 -56 -15 -21 0 -38 -3
-38 -8 0 -6 52 -27 87 -35 26 -6 23 -15 -6 -22 -17 -4 -31 -11 -31 -17 0 -29
154 37 205 88 39 38 65 54 65 40 0 -3 -16 -35 -36 -73 -20 -37 -48 -102 -64
-143 -41 -112 -173 -391 -222 -471 -15 -25 -28 -59 -28 -75 0 -31 -73 -310
-84 -321 -11 -11 -13 -2 -35 127 -43 259 -64 588 -44 685 7 30 7 54 2 60 -5 5
-9 -7 -9 -30 0 -22 -5 -47 -11 -55 -11 -16 -5 227 7 283 12 55 23 25 18 -50
-8 -110 16 -179 73 -211 l41 -22 -29 72 c-17 39 -33 77 -38 82 -7 9 -31 94
-31 109 0 2 10 3 23 3 17 -1 21 4 20 22 -2 13 1 21 7 17 6 -3 10 -1 10 6 0 19
-61 79 -81 79 -26 0 -39 23 -65 111 -17 60 -21 86 -13 100 5 10 9 34 8 51 -1
18 3 51 8 73 6 26 7 50 0 65 -5 14 -11 44 -13 67 -4 36 1 47 26 76 17 19 30
46 30 60 0 14 5 29 10 32 6 3 10 18 10 32 0 14 11 41 25 59 l25 33 33 -19 c27
-16 40 -18 66 -10z m5211 -15 c0 -8 -4 -15 -10 -15 -5 0 -10 7 -10 15 0 8 5
15 10 15 6 0 10 -7 10 -15z m4637 -36 c22 -22 23 -22 80 -4 69 22 130 21 156
-2 15 -14 18 -27 14 -61 -4 -35 -1 -44 15 -53 16 -9 19 -19 16 -67 l-3 -57
-60 -21 c-127 -43 -133 -53 -121 -191 6 -63 4 -78 -10 -94 -18 -21 -49 -25
-59 -9 -3 6 -15 10 -26 10 -22 0 -26 -19 -4 -21 24 -2 29 -4 53 -19 30 -20 28
-32 -4 -18 -20 9 -30 9 -45 0 -10 -7 -30 -12 -45 -12 -38 0 -64 -18 -64 -45 0
-24 15 -43 22 -26 2 5 47 4 106 -3 102 -11 102 -11 81 -30 -18 -15 -32 -17
-71 -13 -49 6 -60 -1 -32 -23 27 -23 38 -51 23 -61 -19 -12 -49 -11 -49 1 0
18 -65 90 -80 90 -6 0 -10 7 -10 15 0 16 -70 89 -113 118 -15 10 -27 26 -27
37 0 10 -4 22 -10 25 -5 3 -10 1 -10 -4 0 -6 -7 -11 -16 -11 -10 0 -14 7 -12
23 2 13 -2 21 -9 20 -16 -3 -43 93 -43 151 0 38 3 46 19 46 27 0 44 -26 37
-55 -4 -14 -2 -25 2 -25 5 0 10 -25 10 -56 0 -31 5 -61 11 -67 8 -8 10 11 5
73 -7 93 2 141 43 228 14 29 22 60 19 69 -10 25 22 109 53 142 26 27 32 30 81
25 37 -3 61 -11 77 -25z m-6442 -20 c5 -5 -8 -9 -33 -9 -32 0 -42 4 -42 16 0
12 7 14 33 9 17 -4 36 -11 42 -16z m-348 -13 c9 -8 -39 -45 -59 -46 -12 0 -15
5 -11 16 5 14 1 15 -25 9 -38 -8 -44 10 -9 25 22 10 93 7 104 -4z m3098 -16
c3 -5 1 -10 -4 -10 -6 0 -11 5 -11 10 0 6 2 10 4 10 3 0 8 -4 11 -10z m1262 4
c-3 -3 -12 -4 -19 -1 -8 3 -5 6 6 6 11 1 17 -2 13 -5z m-4517 -14 c-19 -13
-30 -13 -30 0 0 6 10 10 23 10 18 0 19 -2 7 -10z m4586 -16 c17 -14 17 -15 1
-10 -10 3 -27 6 -38 6 -10 0 -19 5 -19 10 0 15 34 12 56 -6z m-4639 -31 c-3
-10 -5 -4 -5 12 0 17 2 24 5 18 2 -7 2 -21 0 -30z m663 12 c0 -14 -4 -25 -10
-25 -5 0 -10 11 -10 25 0 14 5 25 10 25 6 0 10 -11 10 -25z m1198 5 c7 -11 9
-20 4 -20 -10 0 -32 22 -32 32 0 15 15 8 28 -12z m1632 0 c0 -5 -7 -10 -16
-10 -8 0 -12 5 -9 10 3 6 10 10 16 10 5 0 9 -4 9 -10z m-3170 -17 c0 -10 -5
-36 -11 -57 -10 -38 -10 -41 17 -60 16 -12 40 -21 53 -21 49 0 30 -20 -21 -22
-29 -1 -82 -4 -118 -5 -36 -2 -67 0 -70 4 -3 4 -25 -10 -48 -32 -30 -29 -51
-40 -73 -40 -30 0 -31 1 -26 34 3 19 13 46 22 60 16 24 23 26 82 26 77 0 114
18 140 69 32 63 53 81 53 44z m4310 2 c7 -8 9 -22 6 -31 -5 -13 -9 -14 -21 -4
-16 13 -21 50 -6 50 5 0 14 -7 21 -15z m-1324 -51 c-8 -22 -23 -17 -28 11 -4
17 0 25 11 27 17 4 26 -15 17 -38z m-3239 1 c5 -16 -14 -38 -26 -31 -18 12
-13 48 6 44 9 -2 18 -7 20 -13z m3473 -14 c0 -9 5 -22 11 -28 8 -8 8 -13 -1
-18 -15 -9 -16 -7 -23 38 -3 22 -2 35 4 32 5 -4 9 -14 9 -24z m4290 -10 c17
-42 19 -86 9 -161 -14 -96 -17 -102 -40 -90 -17 10 -19 22 -19 123 0 62 3 122
6 135 9 31 29 28 44 -7z m-8377 -35 c16 -12 23 -24 18 -29 -5 -5 -17 -1 -30
12 -14 14 -34 21 -58 21 -38 0 -38 0 -13 13 28 15 43 12 83 -17z m989 22 c3
-8 33 -14 86 -16 l80 -4 12 -50 c12 -46 11 -51 -11 -74 -12 -13 -29 -24 -36
-24 -7 0 -35 23 -61 52 -26 28 -59 64 -75 80 -15 16 -25 33 -22 39 9 13 23 11
27 -3z m3038 -9 c0 -11 -4 -18 -10 -14 -5 3 -7 12 -3 20 7 21 13 19 13 -6z
m2484 -46 c-26 -19 -31 -16 -32 15 0 41 9 48 30 22 19 -23 19 -25 2 -37z
m-8529 38 c3 -5 -4 -13 -16 -16 -26 -9 -72 2 -64 15 8 13 72 13 80 1z m4763
-64 c1 -35 8 -64 15 -69 9 -6 9 -8 0 -8 -9 0 -13 -16 -13 -47 -1 -74 -22 -27
-25 56 -2 36 -6 83 -10 103 -6 32 -5 36 12 32 15 -4 18 -16 21 -67z m2450 36
c17 -37 16 -39 -24 -89 -31 -37 -40 -43 -63 -38 -43 11 -49 22 -50 84 0 66 1
67 79 69 40 1 47 -2 58 -26z m-7776 -29 c23 -41 30 -209 8 -209 -9 0 -16 11
-18 30 -2 17 -15 63 -29 104 -24 68 -25 74 -9 83 9 5 13 14 10 20 -4 6 -1 9 7
6 8 -3 21 -18 31 -34z m2487 12 c7 -8 20 -12 30 -9 24 6 36 -14 21 -32 -11
-13 -18 -12 -51 7 -21 11 -40 27 -43 35 -7 18 28 17 43 -1z m10141 -48 c0 -16
-5 -19 -25 -14 -24 6 -24 5 -13 -21 7 -16 27 -47 45 -70 18 -23 33 -48 33 -57
0 -8 4 -17 9 -20 5 -3 11 -15 14 -26 4 -17 1 -20 -21 -16 -15 2 -40 5 -57 6
l-30 2 28 10 c43 16 33 31 -17 24 -42 -7 -44 -6 -55 25 -9 25 -7 43 10 95 11
35 18 72 14 83 -10 31 25 46 48 20 9 -12 17 -30 17 -41z m-11980 42 c0 -5 -5
-10 -11 -10 -5 0 -7 5 -4 10 3 6 8 10 11 10 2 0 4 -4 4 -10z m11690 -4 c0 -7
3 -29 6 -47 5 -32 5 -33 -10 -15 -18 22 -22 76 -6 76 6 0 10 -6 10 -14z
m-9940 -6 c0 -5 -4 -10 -10 -10 -5 0 -10 5 -10 10 0 6 5 10 10 10 6 0 10 -4
10 -10z m4205 0 c-3 -5 -13 -10 -21 -10 -8 0 -14 5 -14 10 0 6 9 10 21 10 11
0 17 -4 14 -10z m-5795 -30 c0 -16 -4 -30 -10 -30 -5 0 -10 14 -10 30 0 17 5
30 10 30 6 0 10 -13 10 -30z m343 10 c3 -13 0 -20 -8 -20 -17 0 -28 17 -20 30
10 16 22 12 28 -10z m7856 8 c25 -1 42 -7 46 -16 5 -13 7 -13 23 0 30 26 42
30 42 13 0 -8 -10 -19 -22 -24 l-22 -8 22 -5 c28 -8 28 -26 0 -37 -27 -11
-108 -86 -108 -101 0 -24 -15 -8 -16 18 0 15 -2 41 -3 57 -1 17 0 43 2 58 3
18 -1 31 -9 34 -8 3 -14 9 -14 15 0 5 4 7 9 4 5 -4 27 -7 50 -8z m3441 -3 c11
-13 8 -15 -15 -15 -23 0 -26 2 -15 15 7 8 14 15 15 15 1 0 8 -7 15 -15z m365
5 c3 -5 1 -10 -4 -10 -6 0 -11 5 -11 10 0 6 2 10 4 10 3 0 8 -4 11 -10z
m-10595 -21 c0 -12 -37 -12 -45 0 -3 5 3 11 12 13 21 5 33 0 33 -13z m191 -9
c9 0 22 -6 29 -14 6 -8 21 -17 33 -19 12 -2 4 -5 -18 -6 -45 -1 -85 21 -85 47
0 12 3 13 12 4 7 -7 20 -12 29 -12z m1214 -10 c10 -11 16 -22 14 -25 -7 -6
-49 24 -49 36 0 15 16 10 35 -11z m-277 -14 c-4 -19 -1 -22 14 -18 10 2 18 11
18 18 0 8 9 14 20 14 14 0 20 -6 18 -17 -2 -13 5 -19 27 -21 45 -5 55 -22 15
-24 -19 -1 -53 -3 -75 -4 -22 -1 -52 -5 -67 -9 -23 -6 -28 -4 -28 11 0 15 46
74 58 74 2 0 2 -11 0 -24z m1609 -3 c13 -27 -1 -32 -16 -5 -9 15 -11 15 -20
-8 -9 -24 -9 -24 -8 7 2 38 28 41 44 6z m-1482 7 c3 -5 -3 -10 -14 -10 -11 0
-23 5 -26 10 -3 6 3 10 14 10 11 0 23 -4 26 -10z m6875 0 c0 -5 -10 -10 -22
-9 -22 0 -22 1 -3 9 11 5 21 9 23 9 1 1 2 -3 2 -9z m-5466 -21 c-6 -11 -24 -2
-24 11 0 5 7 7 15 4 8 -4 12 -10 9 -15z m5386 2 c-14 -28 6 -38 31 -15 18 16
19 16 25 -15 8 -39 29 -51 88 -51 52 0 56 -9 26 -55 -11 -16 -25 -46 -30 -65
-5 -19 -20 -48 -33 -64 l-24 -30 -37 18 c-35 17 -41 36 -10 36 17 0 11 33 -11
60 -6 8 -21 45 -33 82 -18 55 -20 72 -10 93 6 14 15 25 20 25 5 0 4 -9 -2 -19z
m-9494 -28 c-11 -11 -19 6 -11 24 8 17 8 17 12 0 3 -10 2 -21 -1 -24z m4594
-4 c0 -6 -4 -7 -10 -4 -5 3 -10 11 -10 16 0 6 5 7 10 4 6 -3 10 -11 10 -16z
m5145 -65 c-3 -35 -11 -67 -16 -70 -18 -10 -19 1 -4 41 8 22 15 58 15 80 1 22
4 34 7 27 3 -8 2 -42 -2 -78z m1229 -6 c-3 -16 -10 -28 -15 -28 -11 0 -12 80
-2 107 10 25 24 -42 17 -79z m-9540 49 c-11 -12 -28 -39 -37 -61 -17 -36 -19
-37 -32 -20 -24 32 -16 84 14 84 9 1 27 7 41 15 33 18 38 11 14 -18z m4453 16
c2 -6 -20 -40 -49 -75 -130 -153 -184 -230 -349 -501 -30 -48 -69 -111 -86
-140 -18 -29 -38 -63 -45 -77 -26 -50 -92 -166 -110 -192 -10 -14 -18 -31 -18
-36 0 -6 -10 -28 -22 -49 -30 -50 -34 -25 -9 55 11 34 26 90 32 125 6 34 22
96 35 137 24 77 32 158 20 197 -8 26 6 57 46 99 25 27 28 36 23 68 -4 20 -18
52 -30 71 l-23 33 36 26 c20 14 57 32 80 40 66 24 248 117 331 170 103 66 130
75 138 49z m3733 7 c0 -5 -5 -10 -11 -10 -5 0 -7 5 -4 10 3 6 8 10 11 10 2 0
4 -4 4 -10z m-5470 -9 c0 -6 -4 -13 -10 -16 -5 -3 -10 1 -10 9 0 9 5 16 10 16
6 0 10 -4 10 -9z m4264 -12 c-8 -14 -24 -10 -24 6 0 9 6 12 15 9 8 -4 12 -10
9 -15z m3212 -8 c-25 -27 -56 -34 -56 -12 0 25 9 31 43 31 29 0 29 -1 13 -19z
m-10926 -31 c0 -12 -26 -19 -49 -13 -26 7 -27 21 -3 39 14 10 20 10 35 -3 9
-9 17 -19 17 -23z m2248 -2 c-2 -30 -8 -43 -18 -43 -19 0 -25 37 -10 64 18 35
31 24 28 -21z m-235 12 c-12 -5 -47 -11 -77 -14 -44 -3 -56 -1 -56 10 0 11 17
14 78 13 55 0 71 -3 55 -9z m-2231 -30 c6 0 8 -7 4 -15 -7 -19 18 -19 113 -3
57 10 75 9 98 -2 27 -13 23 -14 -68 -21 -61 -4 -112 -14 -141 -27 -57 -25 -69
-16 -55 39 7 29 14 39 24 35 8 -4 19 -6 25 -6z m1971 -11 c4 -15 2 -19 -10
-15 -8 3 -19 6 -24 6 -5 0 -9 7 -9 15 0 23 37 18 43 -6z m2113 -14 c-4 -14
-11 -25 -16 -25 -5 0 -5 13 2 31 12 35 23 31 14 -6z m2374 1 c8 -12 20 -35 26
-53 14 -41 -7 -35 -35 10 -27 45 -37 82 -20 71 8 -4 21 -17 29 -28z m-4247 8
c7 -8 -3 -34 -13 -34 -22 0 -61 21 -55 30 7 11 58 14 68 4z m-78 -44 c3 -5 1
-11 -5 -15 -5 -3 -10 -10 -10 -16 0 -14 28 -11 49 7 10 9 36 18 57 20 23 2 34
0 26 -5 -7 -4 -12 -14 -10 -22 2 -11 -13 -15 -70 -17 l-73 -3 -14 35 c-8 20
-15 40 -15 45 0 10 56 -15 65 -29z m7988 -14 c19 -5 27 -12 24 -21 -3 -7 1
-16 10 -20 12 -4 13 -9 6 -16 -15 -15 -138 -13 -177 2 -52 21 -65 55 -16 44
23 -5 30 -3 30 8 0 19 26 25 65 16 17 -4 43 -10 58 -13z m-9963 4 c0 -5 -8
-11 -17 -11 -17 -1 -17 -2 0 -6 24 -6 16 -29 -9 -25 -11 1 -38 -5 -60 -15 -21
-9 -43 -16 -47 -15 -5 2 -7 -3 -5 -9 2 -7 25 -18 50 -26 46 -13 46 -13 84 22
21 19 33 35 26 35 -7 0 -12 4 -12 8 0 10 61 33 71 26 18 -10 8 -44 -16 -60
-14 -9 -25 -21 -25 -26 0 -13 -41 -47 -57 -48 -7 0 -27 -9 -45 -20 -48 -29
-82 -26 -105 10 -22 35 -20 110 3 110 8 0 14 5 14 10 0 6 9 10 20 10 11 0 20
4 20 8 0 9 55 29 88 31 12 0 22 -3 22 -9z m767 -114 c-6 -17 -47 56 -47 83 0
19 5 14 25 -24 14 -26 24 -53 22 -59z m-1543 69 c-4 -8 -12 -15 -20 -15 -8 0
-11 6 -8 15 4 8 12 15 20 15 8 0 11 -6 8 -15z m548 -2 c21 -19 24 -43 5 -43
-19 0 -37 21 -37 42 0 22 8 23 32 1z m4872 1 c3 -8 2 -12 -4 -9 -6 3 -10 10
-10 16 0 14 7 11 14 -7z m-4272 -16 c-7 -7 -12 -8 -12 -2 0 6 3 14 7 17 3 4 9
5 12 2 2 -3 -1 -11 -7 -17z m10785 -9 c18 8 29 9 37 1 5 -5 20 -10 32 -10 29
0 48 -24 36 -46 -7 -12 -5 -25 7 -45 8 -15 13 -29 11 -31 -3 -2 -26 -18 -52
-36 -52 -36 -68 -39 -103 -16 -17 11 -25 26 -25 44 0 22 -5 30 -22 32 -13 3 2
8 34 12 78 11 82 30 13 62 -59 26 -76 50 -24 32 22 -8 37 -7 56 1z m-9247 -11
c15 -10 32 -10 78 0 32 7 66 12 75 12 17 0 43 -47 32 -58 -2 -3 -37 -11 -77
-17 -71 -12 -73 -12 -105 12 -18 14 -33 34 -33 44 0 22 4 23 30 7z m-1525 -78
c7 -65 5 -74 -18 -108 -14 -20 -37 -49 -51 -63 -13 -15 -22 -30 -19 -33 4 -3
0 -6 -7 -6 -7 0 -29 -18 -47 -40 -19 -22 -38 -38 -42 -36 -4 3 -27 -1 -52 -8
-120 -36 -174 -23 -224 52 -28 42 -48 130 -23 102 7 -9 41 -24 76 -35 61 -20
80 -35 43 -35 -16 0 -18 -5 -12 -27 11 -42 50 -60 97 -45 44 13 158 117 148
133 -3 6 11 27 32 48 31 30 43 51 57 109 10 40 22 70 27 67 4 -3 11 -37 15
-75z m6095 65 c0 -9 -9 -15 -24 -15 -13 0 -29 7 -36 15 -11 13 -7 15 24 15 25
0 36 -4 36 -15z m-2400 -10 c0 -8 -4 -15 -10 -15 -5 0 -10 7 -10 15 0 8 5 15
10 15 6 0 10 -7 10 -15z m567 -4 c11 -17 9 -22 -17 -35 -33 -16 -36 -12 -17
27 14 32 18 33 34 8z m-2041 -6 c4 -8 12 -15 20 -15 8 0 14 -3 14 -6 0 -5 -78
-104 -91 -114 -7 -6 -34 -82 -32 -91 1 -3 -14 -24 -33 -45 -37 -40 -63 -102
-61 -143 1 -13 -4 -26 -12 -29 -10 -3 -11 2 -6 18 5 16 4 20 -5 15 -7 -5 -9
-21 -5 -48 6 -34 5 -39 -8 -34 -18 7 -32 -40 -22 -73 8 -26 -20 -38 -47 -21
-25 16 -32 9 -30 -32 1 -27 -5 -38 -29 -56 -22 -16 -28 -26 -20 -34 7 -7 -1
-16 -29 -28 -52 -24 -51 -45 3 -61 l42 -13 -35 -5 c-25 -4 -43 0 -64 14 -27
18 -29 19 -42 2 -7 -10 -16 -16 -21 -13 -4 3 -16 0 -25 -7 -24 -18 -53 -96
-30 -82 5 3 21 -2 36 -10 16 -7 38 -14 49 -14 20 0 20 0 1 -15 -11 -8 -41 -14
-71 -15 -41 0 -54 -4 -63 -19 -15 -29 -12 -41 11 -41 12 0 17 -4 13 -11 -3 -6
-17 -9 -30 -6 -24 4 -34 -9 -34 -45 0 -32 -51 -137 -68 -140 -8 -2 -231 -2
-493 0 l-478 2 8 23 c5 12 11 43 15 69 5 33 18 60 42 89 19 22 34 51 34 64 0
30 36 173 55 218 8 20 15 52 15 71 0 26 9 44 35 72 19 20 35 42 35 49 0 15 33
44 97 85 29 18 60 44 68 57 10 15 25 23 43 23 15 0 59 7 97 16 39 9 93 18 120
21 47 4 78 16 214 82 52 26 56 29 69 81 7 30 20 62 28 70 13 13 14 10 8 -28
-7 -45 0 -69 57 -188 16 -34 29 -65 29 -70 0 -5 15 -16 33 -24 17 -7 35 -15
38 -17 7 -5 43 79 61 142 l14 49 74 26 c41 14 98 38 125 54 94 54 227 149 242
173 18 27 31 29 39 8z m3481 -17 c-3 -8 -6 -5 -6 6 -1 11 2 17 5 13 3 -3 4
-12 1 -19z m1537 7 c-4 -8 -10 -12 -15 -9 -11 6 -2 24 11 24 5 0 7 -7 4 -15z
m3376 -30 c0 -8 8 -15 18 -15 11 0 24 -11 30 -25 8 -17 8 -25 1 -25 -6 0 -13
9 -16 21 -4 14 -12 19 -23 16 -13 -3 -19 2 -23 19 -2 13 0 24 4 24 5 0 9 -7 9
-15z m-10543 -89 c-11 -123 -52 -306 -69 -306 -11 0 -10 18 2 61 25 91 50 227
50 276 0 38 3 52 11 47 8 -4 10 -30 6 -78z m5782 -68 c58 -62 95 -87 107 -75
3 2 -2 12 -11 21 -18 18 -10 40 11 32 8 -3 14 0 14 6 0 6 9 -1 21 -16 28 -36
75 -60 85 -44 4 6 2 14 -4 16 -7 2 -12 10 -12 18 0 9 11 13 37 11 27 -1 38 2
39 13 0 8 2 21 2 27 1 7 26 24 55 39 28 14 63 36 76 48 l23 21 -7 -45 c-4 -25
-15 -79 -25 -120 -10 -41 -22 -97 -25 -125 -4 -27 -15 -69 -25 -91 -23 -50
-36 -224 -21 -269 8 -25 10 -17 9 45 -1 85 35 212 78 275 13 20 24 41 24 48 0
7 18 21 40 31 22 11 40 21 40 23 0 2 -7 15 -16 28 -10 16 -14 37 -11 57 2 18
1 43 -4 56 -14 37 9 25 37 -19 47 -74 66 -130 55 -158 -5 -14 -13 -41 -16 -58
-4 -18 -11 -36 -17 -39 -13 -8 -1 51 19 90 19 36 4 55 -25 31 -90 -77 -110
-105 -74 -105 29 0 79 -72 115 -166 53 -136 136 -390 143 -437 3 -23 9 -53 14
-67 5 -14 11 -46 15 -72 l6 -48 -164 0 c-160 0 -164 1 -175 23 l-11 22 0 -22
c-1 -22 -5 -23 -80 -23 l-79 0 -7 33 c-4 17 -24 68 -45 112 -141 296 -313 713
-308 746 3 19 5 18 40 -6 42 -29 56 -31 64 -10 9 21 -36 89 -49 76 -15 -15
-27 -14 -27 4 0 8 -7 15 -15 15 -8 0 -17 10 -19 23 -3 12 -7 33 -10 47 -2 14
-12 44 -20 68 -23 61 -11 68 32 19 20 -22 66 -72 101 -109z m-2062 125 c3 -7
-3 -9 -17 -6 -29 8 -37 25 -9 21 12 -1 24 -8 26 -15z m443 -13 c12 -23 12 -24
-3 -11 -10 7 -17 20 -17 29 0 18 3 16 20 -18z m3004 5 c3 -8 1 -15 -4 -15 -6
0 -10 7 -10 15 0 8 2 15 4 15 2 0 6 -7 10 -15z m1996 6 c0 -11 59 -68 90 -86
27 -15 68 -35 138 -66 43 -18 51 -46 11 -36 -21 6 -26 -8 -6 -16 6 -3 -4 -6
-23 -7 l-35 -1 35 -15 c43 -19 132 -21 185 -4 22 6 57 25 78 42 32 25 37 27
37 10 0 -19 -44 -65 -72 -75 -9 -3 -22 -18 -30 -34 -32 -67 -159 -84 -263 -34
-103 49 -215 145 -215 185 0 9 -4 16 -10 16 -18 0 -11 17 25 60 19 23 35 48
35 56 0 8 5 14 10 14 6 0 10 -4 10 -9z m-9133 -150 c-8 -111 -37 -243 -57
-249 -9 -3 -11 2 -6 19 3 13 13 49 22 79 9 30 18 106 21 169 4 83 9 109 16 96
6 -11 7 -57 4 -114z m10280 107 c-3 -8 -6 -5 -6 6 -1 11 2 17 5 13 3 -3 4 -12
1 -19z m-36 -27 c8 11 11 11 20 -4 6 -9 15 -15 20 -11 5 3 16 0 24 -6 11 -9
15 -9 15 -1 0 24 21 8 65 -49 32 -41 53 -60 68 -60 12 0 37 -9 55 -20 38 -23
114 -27 131 -6 12 15 2 27 -33 40 -24 8 -12 20 35 35 19 6 52 27 72 46 36 34
67 45 67 25 0 -5 8 -10 19 -10 11 0 32 -20 52 -49 27 -40 45 -54 87 -70 30
-12 62 -21 72 -21 10 0 23 -7 30 -15 7 -8 21 -15 31 -15 11 0 27 -10 37 -21 9
-12 34 -42 55 -66 20 -24 37 -50 37 -56 0 -7 11 -22 24 -34 12 -12 32 -50 44
-85 18 -58 20 -85 19 -338 l-2 -275 -335 -3 -335 -2 -23 72 c-12 40 -22 93
-22 117 0 32 -6 51 -21 67 -16 17 -25 47 -35 116 -20 141 -51 253 -95 340 -21
41 -1 38 48 -7 21 -19 43 -35 50 -35 7 0 27 -8 45 -18 18 -10 46 -22 61 -26
25 -6 27 -5 18 12 -6 11 -22 27 -37 37 -43 28 -88 75 -73 75 10 1 8 6 -6 18
-11 9 -38 40 -59 67 -58 74 -62 76 -128 69 -31 -4 -65 -3 -75 1 -10 5 -24 9
-32 9 -9 1 -22 25 -33 61 -20 67 -23 99 -8 90 6 -3 10 4 10 17 l0 22 16 -23
c13 -18 18 -20 25 -10z m-6466 -1 c3 -6 16 -10 28 -10 19 0 20 -2 6 -15 -17
-17 -81 -27 -90 -14 -3 5 -32 13 -64 17 -32 4 -60 12 -62 19 -5 15 173 17 182
3z m315 6 c0 -3 -4 -8 -10 -11 -5 -3 -10 -1 -10 4 0 6 5 11 10 11 6 0 10 -2
10 -4z m-4179 -62 c-22 -92 -51 -198 -56 -202 -24 -24 8 136 48 238 13 36 20
10 8 -36z m7309 46 c0 -5 -7 -7 -15 -4 -8 4 -15 8 -15 10 0 2 7 4 15 4 8 0 15
-4 15 -10z m35 0 c3 -5 1 -10 -4 -10 -6 0 -11 5 -11 10 0 6 2 10 4 10 3 0 8
-4 11 -10z m2800 1 c-2 -4 5 -13 15 -21 13 -9 16 -19 11 -29 -5 -9 -7 -26 -5
-38 2 -12 0 -24 -4 -27 -8 -5 -232 41 -240 49 -7 6 8 25 21 25 7 0 33 10 59
23 43 21 154 35 143 18z m-10024 -130 c-17 -137 -32 -211 -44 -211 -6 0 -7 13
-2 33 13 64 35 223 35 267 1 37 2 42 11 26 8 -13 8 -45 0 -115z m3055 103 c-5
-14 -9 -15 -19 -5 -9 9 -9 14 3 21 18 11 24 6 16 -16z m2543 -53 c-15 -5 -41
28 -32 42 4 6 14 0 25 -14 14 -17 16 -25 7 -28z m-5909 29 c0 -5 -5 -10 -11
-10 -5 0 -7 5 -4 10 3 6 8 10 11 10 2 0 4 -4 4 -10z m4350 0 c0 -5 -4 -10 -10
-10 -5 0 -10 5 -10 10 0 6 5 10 10 10 6 0 10 -4 10 -10z m6103 -17 c22 -43 29
-73 18 -73 -5 0 -12 13 -16 30 -4 16 -11 32 -16 35 -9 6 -13 35 -4 35 2 0 11
-12 18 -27z m-3558 7 c3 -5 -1 -10 -10 -10 -9 0 -13 5 -10 10 3 6 8 10 10 10
2 0 7 -4 10 -10z m655 0 c0 -5 -2 -10 -4 -10 -3 0 -8 5 -11 10 -3 6 -1 10 4
10 6 0 11 -4 11 -10z m-570 -14 c0 -3 -4 -8 -10 -11 -5 -3 -10 -1 -10 4 0 6 5
11 10 11 6 0 10 -2 10 -4z m3447 -38 c-3 -8 -6 -5 -6 6 -1 11 2 17 5 13 3 -3
4 -12 1 -19z m-9964 -35 c50 -25 87 -48 80 -50 -7 -2 -56 18 -109 46 -53 28
-89 51 -80 51 9 0 58 -21 109 -47z m142 -1 c-6 -7 -35 18 -35 31 0 5 9 2 20
-8 11 -10 18 -20 15 -23z m2315 34 c0 -2 5 -28 11 -57 13 -71 13 -143 0 -147
-6 -2 -11 -8 -11 -13 0 -4 -11 -32 -24 -61 -13 -29 -27 -64 -31 -78 -5 -20 -2
-18 16 10 12 19 28 50 36 69 29 68 22 21 -12 -79 -19 -57 -33 -105 -31 -107 7
-7 97 137 102 167 5 23 15 34 40 45 19 8 50 31 69 52 60 65 38 21 -33 -68 -82
-102 -162 -228 -162 -255 0 -11 -8 -29 -18 -40 -36 -38 -127 -246 -118 -269 3
-9 0 -15 -10 -15 -16 0 -69 -50 -91 -85 -12 -20 -13 -20 -32 3 -19 22 -20 22
-26 2 -3 -11 -13 -20 -21 -20 -18 0 -18 41 1 86 l15 36 66 -3 67 -4 29 85 c41
119 61 196 70 278 1 6 5 12 9 12 4 0 10 7 13 16 5 14 4 15 -9 4 -12 -10 -15
-10 -15 3 0 20 62 190 91 249 20 42 21 53 12 100 -5 29 -13 61 -18 71 -4 10
-3 17 4 17 6 0 11 -2 11 -4z m4424 -37 c15 -16 35 -29 42 -29 8 0 14 -7 14
-15 0 -26 -29 -16 -74 25 -24 22 -49 40 -55 40 -7 0 -9 5 -6 10 10 16 46 1 79
-31z m-7739 11 c-3 -6 -21 -18 -38 -27 -43 -22 -197 -82 -197 -77 0 3 39 22
88 44 48 22 101 47 117 54 37 18 38 18 30 6z m492 -35 c-6 -19 -14 -35 -19
-35 -11 0 -10 13 2 44 15 40 30 32 17 -9z m691 -65 c7 -25 17 -65 21 -90 8
-43 7 -47 -33 -96 -83 -103 -81 -105 -81 81 0 148 2 165 20 185 l19 21 21 -28
c11 -15 26 -48 33 -73z m-1163 36 c-10 -25 -23 -51 -31 -57 -7 -6 -16 -24 -19
-40 -4 -17 -13 -29 -22 -29 -11 0 -13 5 -8 18 4 9 14 33 21 52 7 19 13 28 14
20 0 -8 11 9 25 39 30 64 45 62 20 -3z m799 29 c20 -14 41 -25 46 -25 6 0 10
-4 10 -10 0 -5 -3 -10 -7 -10 -8 0 -103 61 -103 66 0 10 20 2 54 -21z m-830
-19 c-3 -9 -16 -16 -28 -16 -21 1 -21 1 3 21 26 22 35 20 25 -5z m1023 2 c-3
-8 -6 -5 -6 6 -1 11 2 17 5 13 3 -3 4 -12 1 -19z m-278 -15 c0 -10 -4 -27 -9
-38 -7 -16 -9 -12 -8 18 1 20 6 37 10 37 4 0 8 -8 7 -17z m3925 -23 c-7 -31
11 -44 22 -16 3 8 12 17 20 20 10 4 13 2 7 -7 -4 -6 -6 -20 -5 -29 2 -10 -1
-18 -6 -18 -6 0 -13 -11 -16 -25 -4 -14 -11 -25 -17 -25 -8 0 -7 -5 1 -15 8
-10 9 -19 3 -27 -6 -7 -16 -48 -23 -91 -7 -43 -17 -80 -22 -83 -5 -3 -6 -14
-3 -24 4 -13 -5 -30 -30 -56 -34 -35 -36 -36 -29 -10 7 29 -13 38 -22 9 -3
-10 -21 -56 -39 -103 -18 -47 -39 -112 -46 -145 -8 -38 -14 -52 -17 -37 -7 45
-20 20 -20 -40 -1 -82 -4 -98 -14 -92 -16 10 -8 110 18 224 14 63 29 121 33
130 5 8 11 29 14 47 10 50 74 208 135 331 30 61 57 112 59 112 1 0 0 -13 -3
-30z m-4738 5 c-11 -8 -25 -15 -30 -15 -6 0 -2 7 8 15 11 8 25 15 30 15 6 0 2
-7 -8 -15z m855 -48 c-8 -8 -11 -2 -11 19 0 40 14 54 18 19 2 -15 -1 -32 -7
-38z m-336 43 c-10 -16 -65 -42 -65 -31 0 6 12 17 28 25 32 18 46 20 37 6z
m525 -30 c0 -13 -1 -13 -10 0 -5 8 -10 22 -10 30 0 13 1 13 10 0 5 -8 10 -22
10 -30z m-1104 15 c-11 -8 -23 -15 -26 -15 -3 0 -14 -26 -24 -57 -9 -32 -27
-75 -38 -97 -17 -33 -19 -49 -13 -115 5 -57 2 -93 -10 -140 -15 -57 -39 -340
-30 -349 5 -6 14 48 20 133 4 44 15 131 26 193 13 74 18 129 13 159 -5 37 -2
55 14 87 12 23 28 66 36 96 8 30 22 64 31 75 16 20 16 19 10 -5 -4 -14 -13
-49 -20 -78 -8 -30 -22 -63 -32 -74 -14 -16 -17 -34 -15 -101 2 -46 -4 -114
-12 -154 -9 -40 -20 -134 -26 -210 -6 -76 -13 -144 -15 -150 -6 -18 -70 -16
-85 1 -6 8 -10 28 -8 43 2 17 -2 27 -9 26 -6 -1 -17 12 -24 30 -6 18 -18 48
-26 67 -10 22 -16 86 -19 176 -3 77 -11 174 -18 215 l-14 74 -1 -75 c0 -41 4
-95 10 -119 9 -40 7 -51 -22 -118 -18 -40 -36 -73 -39 -73 -10 0 -36 -98 -50
-187 -8 -51 -16 -73 -26 -73 -8 0 -14 10 -15 23 l0 22 -11 -22 c-6 -13 -15
-23 -21 -23 -5 0 -7 10 -4 23 27 108 46 206 57 282 12 82 54 236 78 281 6 11
16 39 23 63 10 34 26 54 69 88 51 40 145 82 157 70 3 -3 -18 -15 -46 -28 -32
-13 -51 -28 -51 -38 0 -9 -6 -23 -12 -30 -10 -9 -13 -61 -13 -191 0 -118 3
-173 10 -162 5 9 8 80 8 156 -1 129 1 143 24 195 14 31 27 51 30 44 2 -7 -5
-33 -16 -59 -19 -42 -20 -59 -15 -154 4 -66 3 -125 -4 -156 -16 -68 -25 -195
-13 -169 5 11 10 40 10 64 1 24 8 71 17 105 12 45 15 83 10 148 -6 74 -4 93
12 125 10 21 24 56 31 79 11 34 21 45 65 67 57 29 94 36 62 12z m7480 -12 c-7
-7 -26 7 -26 19 0 6 6 6 15 -2 9 -7 13 -15 11 -17z m-6897 -7 c-22 -19 -94
-66 -101 -66 -13 0 -9 20 5 20 6 0 30 14 51 30 22 17 42 28 44 25 3 -3 3 -7 1
-9z m-534 -62 c-14 -37 -25 -75 -25 -84 0 -10 -7 -26 -16 -35 -12 -12 -17 -40
-20 -108 -1 -51 -9 -127 -18 -169 -8 -43 -20 -132 -26 -200 -12 -128 -14 -138
-32 -138 -7 0 -8 13 -4 38 3 20 11 84 16 142 6 58 17 140 25 184 8 43 15 109
15 146 0 52 4 73 20 93 11 14 20 32 20 40 0 8 10 41 21 74 12 32 23 64 25 71
2 6 8 12 14 12 5 0 -1 -30 -15 -66z m802 24 c-3 -7 -5 -2 -5 12 0 14 2 19 5
13 2 -7 2 -19 0 -25z m2722 -7 c-31 -30 -39 -36 -39 -27 0 8 64 65 68 61 2 -2
-11 -17 -29 -34z m-2459 3 c0 -14 -4 -23 -9 -20 -5 3 -7 15 -4 26 7 28 13 25
13 -6z m6355 16 c3 -5 -1 -10 -9 -10 -8 0 -18 5 -21 10 -3 6 1 10 9 10 8 0 18
-4 21 -10z m35 -45 c0 -5 -5 -3 -10 5 -5 8 -10 20 -10 25 0 6 5 3 10 -5 5 -8
10 -19 10 -25z m-7310 -6 c0 -6 -4 -7 -10 -4 -5 3 -10 11 -10 16 0 6 5 7 10 4
6 -3 10 -11 10 -16z m966 -41 c16 -46 21 -82 19 -133 -3 -51 1 -74 12 -87 27
-30 1 -348 -29 -348 -6 0 -6 -5 1 -14 6 -7 9 -20 7 -27 -2 -8 -7 -26 -10 -41
-6 -25 -11 -28 -46 -28 l-40 0 -2 48 -2 47 -3 -47 c-4 -46 -6 -48 -34 -48 -29
0 -29 1 -23 43 19 140 57 362 83 490 17 82 30 152 30 155 -3 21 2 52 9 52 4 0
17 -28 28 -62z m-1081 33 c3 -5 1 -12 -5 -16 -5 -3 -10 1 -10 9 0 18 6 21 15
7z m350 -1 c3 -5 -3 -10 -14 -10 -12 0 -21 -5 -21 -12 0 -6 -3 -8 -6 -5 -8 7
14 37 27 37 4 0 11 -4 14 -10z m101 -47 c-2 -2 -10 -1 -19 3 -13 5 -14 10 -4
31 l11 25 8 -28 c4 -15 6 -29 4 -31z m184 30 c0 -22 -17 -50 -25 -42 -6 7 11
59 20 59 3 0 5 -8 5 -17z m-289 -58 c-30 -42 -41 -72 -21 -60 6 3 10 0 11 -7
0 -7 7 1 15 19 15 35 43 60 30 27 -13 -33 -25 -134 -36 -319 -13 -228 -21
-295 -31 -295 -5 0 -9 19 -9 43 0 28 -3 37 -9 28 -5 -7 -14 -10 -20 -7 -7 5
-11 -5 -11 -28 0 -20 -4 -36 -10 -36 -13 0 -13 87 -1 162 6 32 13 120 16 195
4 76 9 145 12 153 3 8 7 28 8 43 2 15 9 36 18 45 8 9 25 37 37 62 13 25 25 39
28 32 2 -8 -10 -33 -27 -57z m210 -26 c-5 -30 -17 -97 -26 -149 -9 -52 -18
-97 -21 -99 -16 -16 21 260 43 314 13 33 15 -4 4 -66z m-430 -49 c-6 -3 -16
-44 -21 -91 -23 -210 -30 -288 -31 -349 -1 -77 -9 -112 -28 -118 -8 -3 -11 0
-7 7 4 6 12 78 17 159 17 266 25 337 42 370 10 21 14 45 10 67 -3 19 -2 42 2
52 6 13 11 4 18 -36 6 -38 6 -56 -2 -61z m364 18 c-9 -45 -21 -155 -25 -243
-14 -268 -21 -335 -36 -335 -9 0 -12 9 -9 28 2 15 9 97 15 182 5 85 12 184 15
220 5 73 30 213 40 230 16 25 16 -3 0 -82z m-405 38 c0 -17 -5 -37 -12 -44 -6
-6 -17 -69 -24 -139 -7 -70 -20 -195 -28 -278 -9 -82 -16 -151 -16 -152 0 -2
-5 -3 -11 -3 -12 0 -8 62 16 275 7 66 16 155 20 197 4 47 12 81 21 89 8 7 14
30 14 56 0 27 4 42 10 38 6 -3 10 -21 10 -39z m135 23 c-4 -11 -2 -33 5 -49 9
-22 8 -37 -4 -74 -17 -50 -39 -340 -29 -388 6 -33 -15 -128 -29 -128 -7 0 -7
14 -2 38 4 20 8 53 7 72 -2 123 18 371 33 409 12 31 14 48 6 69 -13 37 -11 72
6 72 9 0 11 -7 7 -21z m-194 -52 c-13 -13 -14 5 -3 43 l7 25 3 -29 c2 -16 -1
-33 -7 -39z m144 -56 c-14 -47 -35 -274 -35 -392 0 -71 -15 -139 -32 -139 -6
0 -7 10 -2 28 5 15 9 65 10 112 1 103 12 282 20 330 3 19 13 50 21 67 12 26
13 39 4 64 -6 17 -8 36 -4 42 3 6 12 -6 20 -27 11 -32 10 -46 -2 -85z m257 17
c-6 -40 -14 -120 -17 -178 -3 -58 -10 -165 -17 -237 -13 -162 -34 -183 -24
-25 4 59 11 170 16 247 9 139 23 246 36 266 14 23 16 -4 6 -73z m-152 63 c0
-6 -4 -13 -10 -16 -5 -3 -10 1 -10 9 0 9 5 16 10 16 6 0 10 -4 10 -9z m-322
-118 c-3 -54 -11 -129 -17 -168 -6 -38 -15 -120 -21 -182 -11 -119 -16 -143
-32 -143 -11 0 -8 33 28 316 13 106 24 205 24 221 0 22 15 53 25 53 0 0 -3
-44 -7 -97z m51 0 c-4 -43 -14 -139 -23 -213 -8 -74 -18 -165 -21 -202 -6 -59
-17 -89 -30 -77 -6 7 53 548 61 561 15 23 19 -1 13 -69z m1133 -5 c-15 -15
-26 -4 -18 18 5 13 9 15 18 6 9 -9 9 -15 0 -24z m6357 -33 l0 -20 -9 20 c-5
11 -9 27 -9 35 -1 13 0 13 9 0 5 -8 9 -24 9 -35z m1391 -15 c0 -11 -9 -29 -21
-41 -11 -11 -18 -26 -16 -33 3 -7 1 -19 -3 -26 -7 -11 -12 -7 -21 14 -10 22
-10 29 0 35 9 6 10 11 2 15 -16 10 -14 39 3 33 8 -3 22 1 33 8 23 18 23 18 23
-5z m-95 1 c10 -17 -12 -21 -25 -6 -10 12 -10 15 3 15 9 0 18 -4 22 -9z m-119
-37 c-3 -9 -6 -23 -6 -32 0 -15 -2 -15 -10 -2 -15 23 -12 50 6 50 11 0 14 -5
10 -16z m89 1 c26 -11 35 -24 35 -52 0 -27 -22 -30 -41 -6 -11 13 -11 17 -1
20 6 3 12 8 12 13 0 12 -39 20 -46 9 -7 -12 -24 -1 -24 16 0 15 30 15 65 0z
m-4910 -40 c-18 -15 -29 -32 -27 -44 2 -12 -7 -26 -22 -37 -15 -9 -26 -24 -26
-33 0 -9 -9 -22 -19 -28 -11 -7 -21 -23 -23 -35 -2 -18 -10 -24 -38 -26 -44
-4 -61 -20 -37 -33 23 -13 22 -29 -3 -29 -12 0 -31 -10 -43 -21 -12 -12 -37
-28 -56 -36 -28 -12 -35 -12 -42 -1 -12 19 -12 19 25 60 34 38 196 154 196
141 0 -14 47 43 54 65 7 20 70 82 84 82 4 -1 -6 -12 -23 -25z m785 15 c0 -5
-5 -10 -11 -10 -5 0 -7 5 -4 10 3 6 8 10 11 10 2 0 4 -4 4 -10z m4126 -64 c20
-21 17 -28 -8 -20 -29 8 -31 10 -23 23 8 14 14 14 31 -3z m69 -6 c-3 -5 -11
-10 -16 -10 -6 0 -7 5 -4 10 3 6 11 10 16 10 6 0 7 -4 4 -10z m92 -5 c6 -18
-23 -55 -44 -55 -17 0 -16 4 2 40 17 33 32 38 42 15z m-1337 -42 c0 -21 2 -63
5 -93 4 -53 4 -53 -10 15 -17 85 -18 115 -5 115 6 0 10 -17 10 -37z m-7980
-72 c-20 -66 -40 -93 -40 -55 0 18 52 135 58 130 2 -2 -6 -36 -18 -75z m3180
59 c148 -28 239 -50 270 -63 l35 -15 -30 -11 c-16 -7 -41 -22 -53 -34 -27 -25
-62 -88 -62 -112 0 -17 -26 -21 -32 -4 -3 9 -9 9 -25 0 -34 -17 -41 -13 -39
20 0 18 -5 34 -11 36 -9 3 -13 -6 -13 -25 0 -18 -6 -32 -16 -36 -22 -9 -27 -2
-26 34 l1 30 -69 0 c-58 0 -75 -4 -107 -26 -21 -14 -41 -31 -45 -37 -14 -22
-9 17 6 45 14 25 13 29 -6 42 l-20 15 21 35 c36 57 117 113 166 115 6 0 30 -4
55 -9z m5930 -66 c19 -18 47 -37 63 -43 15 -6 31 -22 37 -35 5 -13 15 -27 22
-30 9 -4 10 -8 2 -11 -13 -7 -7 -45 7 -45 5 0 9 -5 9 -11 0 -7 -8 -9 -20 -5
-11 3 -30 9 -42 13 -15 4 -19 3 -14 -5 5 -9 -9 -12 -47 -12 -52 0 -76 11 -75
35 0 6 -15 15 -33 20 -50 15 -61 25 -55 48 3 12 0 27 -5 34 -17 20 -1 33 43
33 l40 0 -32 30 c-27 25 -30 33 -20 45 11 13 17 12 49 -7 20 -11 52 -36 71
-54z m290 66 c0 -5 -5 -10 -11 -10 -5 0 -7 5 -4 10 3 6 8 10 11 10 2 0 4 -4 4
-10z m-9351 -115 c0 -5 -4 -3 -9 5 -5 8 -9 22 -9 30 0 16 17 -16 18 -35z
m5585 24 c45 -35 34 -45 -55 -52 -45 -4 -86 -4 -90 -1 -14 8 9 42 39 58 38 21
75 19 106 -5z m2295 -52 c10 -67 6 -107 -10 -107 -5 0 -9 41 -9 92 0 50 2 89
5 87 2 -3 9 -35 14 -72z m-4093 -36 c-14 -15 -26 -32 -26 -39 0 -21 -35 -29
-142 -31 -103 -2 -108 -1 -108 19 0 25 32 58 66 66 14 4 59 4 99 1 52 -4 79
-2 91 8 10 7 24 10 32 8 10 -4 7 -13 -12 -32z m-886 -1 c0 -5 -12 -10 -27 -9
l-28 1 25 8 c14 4 26 8 28 9 1 1 2 -3 2 -9z m7204 -42 c-43 -23 -51 -20 -24 9
12 14 27 19 40 16 18 -5 16 -8 -16 -25z m154 -12 c3 -15 0 -17 -20 -11 -30 10
-31 11 -23 25 10 17 39 8 43 -14z m-10298 -1 c0 -8 -4 -15 -10 -15 -5 0 -7 7
-4 15 4 8 8 15 10 15 2 0 4 -7 4 -15z m384 -351 c9 -24 7 -28 -9 -14 -17 14
-20 30 -6 30 5 0 12 -7 15 -16z m2126 -5 c0 -18 -2 -19 -15 -5 -8 8 -15 17
-15 20 0 3 7 6 15 6 9 0 15 -9 15 -21z m3077 -1 c-3 -8 -6 -5 -6 6 -1 11 2 17
5 13 3 -3 4 -12 1 -19z m2636 2 c-4 -17 -23 -29 -23 -16 0 2 -3 11 -6 20 -4
11 0 16 14 16 15 0 19 -5 15 -20z m2427 -1 c-9 -16 -14 -18 -26 -8 -21 17 -17
29 11 29 23 0 24 -2 15 -21z m-10728 -171 c15 -15 18 -23 9 -26 -7 -2 -18 4
-25 13 -15 21 -50 16 -54 -7 -2 -11 10 -20 40 -29 31 -10 44 -20 46 -36 3 -23
-30 -53 -59 -53 -22 0 -66 36 -57 46 5 4 17 -1 27 -10 24 -22 56 -17 56 8 0
13 -11 23 -35 31 -24 8 -36 19 -38 34 -8 50 50 69 90 29z m178 -2 c0 -19 4
-23 20 -19 32 8 50 -15 50 -63 0 -56 -18 -57 -22 -1 -2 34 -7 42 -23 42 -16 0
-21 -8 -23 -42 -5 -72 -22 -48 -22 32 0 43 4 75 10 75 6 0 10 -11 10 -24z
m160 -51 c0 -43 -4 -75 -10 -75 -6 0 -10 32 -10 75 0 43 4 75 10 75 6 0 10
-32 10 -75z m188 59 c12 -8 22 -22 22 -30 0 -20 -13 -17 -28 6 -16 27 -68 27
-82 1 -24 -45 -2 -101 40 -101 19 0 45 21 53 42 2 7 8 10 12 6 5 -5 3 -19 -3
-32 -13 -29 -61 -42 -94 -25 -32 17 -38 28 -38 72 0 66 63 100 118 61z m62 -8
c0 -20 4 -22 27 -18 34 6 53 -19 53 -70 0 -27 -4 -38 -15 -38 -11 0 -15 12
-15 45 0 37 -3 45 -19 45 -21 0 -31 -19 -31 -61 0 -16 -4 -29 -10 -29 -6 0
-10 32 -10 75 0 43 4 75 10 75 6 0 10 -11 10 -24z m420 -50 l0 -73 -30 -6
c-39 -8 -59 0 -71 30 -15 40 9 78 49 78 27 0 32 4 32 22 0 13 5 23 10 23 6 0
10 -31 10 -74z m1021 64 c10 -6 19 -17 19 -25 0 -20 -16 -19 -24 1 -8 20 -50
14 -54 -8 -2 -12 8 -20 37 -28 50 -13 64 -45 31 -72 -29 -24 -55 -23 -81 3
-26 26 -17 39 10 15 24 -22 56 -17 56 8 0 13 -11 23 -35 31 -41 14 -53 51 -24
72 22 16 39 16 65 3z m181 -12 c2 -18 8 -22 30 -20 53 6 77 -82 29 -108 -11
-5 -33 -7 -50 -4 l-31 7 0 73 c0 41 4 74 9 74 5 0 11 -10 13 -22z m567 -33
c13 -30 26 -55 31 -55 4 0 18 25 30 55 13 31 28 54 34 52 14 -5 21 -147 7
-147 -5 0 -11 21 -13 48 l-3 47 -22 -47 c-12 -27 -27 -48 -33 -48 -6 0 -22 24
-35 53 l-24 52 0 -52 c-1 -29 -5 -53 -11 -53 -6 0 -10 32 -10 75 0 93 16 99
49 20z m2502 45 c24 -14 26 -65 2 -79 -17 -9 -16 -11 1 -30 11 -12 16 -24 12
-29 -4 -4 -18 5 -30 21 -27 34 -46 35 -46 2 0 -14 -4 -25 -10 -25 -6 0 -10 32
-10 75 l0 75 31 0 c17 0 39 -5 50 -10z m604 0 c4 -6 -5 -10 -19 -10 -25 0 -26
-2 -26 -65 0 -37 -4 -65 -10 -65 -6 0 -10 28 -10 65 0 63 -1 65 -25 65 -14 0
-25 5 -25 10 0 6 24 10 54 10 30 0 58 -4 61 -10z m1825 -52 l28 -63 17 40 c10
22 21 50 26 63 17 44 34 18 37 -56 2 -60 0 -72 -13 -72 -11 0 -15 11 -16 43
l-1 42 -19 -42 c-11 -24 -25 -43 -32 -43 -7 0 -22 24 -34 53 l-22 52 0 -52
c-1 -29 -5 -53 -11 -53 -6 0 -10 32 -10 75 0 46 4 75 11 75 5 0 23 -28 39 -62z
m270 36 c0 -15 4 -23 11 -19 5 4 21 4 35 1 21 -6 24 -12 24 -56 0 -28 -4 -50
-10 -50 -5 0 -10 20 -10 45 0 37 -3 45 -19 45 -21 0 -31 -19 -31 -61 0 -16 -4
-29 -10 -29 -6 0 -10 32 -10 75 0 43 4 75 10 75 6 0 10 -12 10 -26z m418 -119
c-2 -1 -17 -6 -34 -9 -40 -9 -64 13 -64 59 0 38 27 61 61 52 13 -4 19 0 19 12
0 10 3 21 8 25 4 4 8 -25 10 -64 2 -40 2 -74 0 -75z m374 133 c40 -33 19 -88
-33 -88 -24 0 -29 -4 -29 -25 0 -14 -4 -25 -10 -25 -6 0 -10 32 -10 75 l0 75
33 0 c18 0 40 -6 49 -12z m1016 -4 c12 -8 22 -22 22 -30 0 -20 -13 -17 -28 7
-19 30 -74 23 -86 -12 -20 -58 27 -111 73 -82 28 18 25 41 -6 46 -20 3 -16 4
15 6 46 1 52 -10 27 -46 -32 -46 -107 -36 -135 18 -36 67 54 138 118 93z m342
-8 c0 -19 4 -23 20 -19 32 8 50 -15 50 -63 0 -56 -18 -57 -22 -1 -2 34 -7 42
-23 42 -16 0 -21 -8 -23 -42 -5 -72 -22 -48 -22 32 0 43 4 75 10 75 6 0 10
-11 10 -24z m188 -38 l28 -61 27 61 c14 34 31 62 37 62 6 0 9 -30 8 -77 -1
-76 -1 -76 -7 -23 l-6 55 -24 -52 c-13 -29 -29 -53 -35 -53 -7 0 -22 21 -33
48 l-21 47 -1 -47 c-2 -80 -21 -55 -21 27 0 46 4 75 10 75 6 0 23 -28 38 -62z
m342 38 c0 -19 4 -22 23 -19 34 6 49 -10 54 -61 5 -38 3 -46 -11 -46 -12 0
-16 10 -16 45 0 37 -3 45 -19 45 -21 0 -31 -19 -31 -61 0 -16 -4 -29 -10 -29
-6 0 -10 32 -10 75 0 43 4 75 10 75 6 0 10 -11 10 -24z m310 -5 c0 -14 6 -17
23 -14 30 6 57 -20 57 -55 0 -48 -15 -57 -82 -54 -28 2 -28 3 -28 70 0 38 3
72 6 75 11 10 24 -2 24 -22z m430 4 c0 -21 4 -25 23 -20 12 3 28 2 34 -3 17
-11 30 -102 14 -102 -6 0 -11 13 -11 29 0 42 -9 61 -30 61 -21 0 -30 -19 -30
-61 0 -16 -4 -29 -10 -29 -6 0 -10 32 -10 75 0 43 4 75 10 75 6 0 10 -11 10
-25z m-11100 5 c0 -5 -7 -10 -15 -10 -8 0 -15 5 -15 10 0 6 7 10 15 10 8 0 15
-4 15 -10z m2230 -5 c0 -8 7 -15 15 -15 8 0 15 -4 15 -10 0 -5 -7 -10 -15 -10
-11 0 -15 -11 -15 -40 0 -31 4 -40 17 -40 12 0 14 -3 7 -10 -22 -22 -44 1 -44
46 0 32 -4 44 -15 44 -8 0 -15 5 -15 10 0 6 7 10 15 10 8 0 15 7 15 15 0 8 5
15 10 15 6 0 10 -7 10 -15z m410 5 c0 -5 -7 -10 -15 -10 -8 0 -15 5 -15 10 0
6 7 10 15 10 8 0 15 -4 15 -10z m50 -5 c0 -8 7 -15 15 -15 8 0 15 -4 15 -10 0
-5 -7 -10 -15 -10 -22 0 -20 -66 2 -79 23 -12 11 -25 -16 -16 -17 5 -21 15
-21 51 0 32 -4 44 -15 44 -11 0 -15 -12 -15 -45 0 -33 -4 -45 -15 -45 -12 0
-15 13 -15 55 0 39 4 55 13 54 30 -4 47 2 47 16 0 8 5 15 10 15 6 0 10 -7 10
-15z m2470 0 c0 -8 7 -15 15 -15 8 0 15 -4 15 -10 0 -5 -7 -10 -15 -10 -11 0
-15 -11 -15 -40 0 -29 4 -40 15 -40 8 0 15 -4 15 -10 0 -11 -11 -13 -34 -4
-11 4 -16 19 -16 50 0 32 -4 44 -15 44 -8 0 -15 5 -15 10 0 6 7 10 15 10 8 0
15 7 15 15 0 8 5 15 10 15 6 0 10 -7 10 -15z m570 0 c0 -8 7 -15 15 -15 8 0
15 -4 15 -10 0 -5 -7 -10 -15 -10 -11 0 -15 -11 -15 -40 0 -31 4 -40 17 -40
12 0 14 -3 7 -10 -22 -22 -44 1 -44 46 0 32 -4 44 -15 44 -8 0 -15 5 -15 10 0
6 7 10 15 10 8 0 15 7 15 15 0 8 5 15 10 15 6 0 10 -7 10 -15z m2910 5 c0 -5
-4 -10 -10 -10 -5 0 -10 5 -10 10 0 6 5 10 10 10 6 0 10 -4 10 -10z m920 0 c0
-5 -7 -10 -15 -10 -8 0 -15 5 -15 10 0 6 7 10 15 10 8 0 15 -4 15 -10z m120 0
c0 -5 -7 -10 -15 -10 -8 0 -15 5 -15 10 0 6 7 10 15 10 8 0 15 -4 15 -10z
m610 -5 c0 -8 7 -15 15 -15 8 0 15 -4 15 -10 0 -5 -7 -10 -15 -10 -11 0 -15
-11 -15 -40 0 -31 4 -40 17 -40 13 0 14 -3 5 -12 -19 -19 -42 9 -42 52 0 21
-6 41 -12 44 -10 5 -10 7 0 12 6 3 12 12 12 20 0 8 5 14 10 14 6 0 10 -7 10
-15z m740 0 c0 -8 7 -15 15 -15 8 0 15 -4 15 -10 0 -5 -7 -10 -15 -10 -22 0
-20 -66 2 -79 10 -5 14 -13 10 -17 -16 -16 -42 13 -45 52 -2 21 -9 43 -15 47
-9 6 -9 10 1 14 6 2 12 11 12 19 0 8 5 14 10 14 6 0 10 -7 10 -15z m-11206
-31 c43 -42 -5 -120 -59 -96 -32 15 -42 55 -21 87 19 29 57 33 80 9z m176 -39
c0 -30 -4 -55 -10 -55 -5 0 -10 25 -10 55 0 30 5 55 10 55 6 0 10 -25 10 -55z
m454 49 c12 -4 16 -20 16 -54 0 -43 -3 -48 -25 -54 -29 -7 -65 8 -65 27 0 20
22 37 47 37 14 0 23 6 23 15 0 17 -36 21 -42 4 -2 -7 -10 -10 -17 -8 -11 4
-10 9 3 22 18 18 34 21 60 11z m123 -5 c15 -13 18 -99 4 -99 -6 0 -11 19 -13
43 -2 34 -7 42 -23 42 -16 0 -21 -8 -23 -42 -4 -61 -22 -53 -22 10 0 51 0 52
32 54 17 1 38 -2 45 -8z m1223 -39 c0 -21 5 -42 10 -45 20 -12 40 17 40 56 0
22 5 39 10 39 6 0 10 -24 10 -54 0 -51 -1 -54 -30 -59 -50 -11 -60 -1 -60 60
0 33 4 52 10 48 6 -3 10 -24 10 -45z m280 40 c0 -5 -9 -12 -20 -15 -16 -5 -20
-15 -20 -46 0 -28 -4 -39 -15 -39 -11 0 -15 12 -15 48 0 27 2 51 4 53 9 8 66
8 66 -1z m90 -9 c5 -11 10 -35 10 -54 0 -31 -4 -35 -31 -41 -34 -6 -69 7 -69
27 0 20 22 37 47 37 14 0 23 6 23 15 0 18 -36 20 -43 3 -2 -7 -8 -10 -12 -6
-13 12 15 38 41 38 13 0 28 -9 34 -19z m178 7 c18 -18 16 -98 -2 -98 -8 0 -20
-2 -28 -5 -23 -9 -51 19 -44 43 5 16 15 22 37 22 19 0 29 5 29 15 0 17 -36 21
-42 4 -2 -7 -10 -10 -17 -8 -11 4 -10 9 3 22 20 20 47 22 64 5z m452 3 c0 -4
-9 -12 -20 -19 -14 -8 -20 -23 -20 -47 0 -19 -4 -35 -10 -35 -5 0 -10 24 -10
53 0 53 0 54 30 54 17 0 30 -3 30 -6z m88 -3 c7 -7 12 -31 12 -54 0 -38 -2
-42 -30 -47 -36 -8 -56 -1 -64 20 -9 21 12 43 40 43 14 0 24 6 24 14 0 23 -17
28 -35 10 -20 -20 -33 -11 -15 11 15 18 51 20 68 3z m2201 3 c7 -5 15 -29 18
-53 5 -44 4 -45 -26 -51 -37 -8 -57 -1 -65 20 -9 23 12 43 46 43 19 0 28 4 26
13 -6 17 -39 21 -49 6 -4 -7 -11 -10 -15 -6 -10 10 16 37 35 37 9 0 22 -4 30
-9z m185 3 c12 -4 16 -20 16 -54 0 -43 -3 -48 -25 -54 -29 -7 -65 8 -65 27 0
20 22 37 47 37 14 0 23 6 23 15 0 8 -9 15 -20 15 -11 0 -20 -4 -20 -10 0 -5
-4 -10 -10 -10 -5 0 -10 6 -10 14 0 22 33 32 64 20z m123 -6 c15 -12 18 -98 3
-98 -5 0 -10 21 -10 46 0 41 -2 45 -22 42 -19 -2 -24 -10 -26 -45 -5 -62 -22
-53 -22 10 0 54 0 54 32 55 18 0 38 -4 45 -10z m273 -7 c14 -28 13 -91 -2 -91
-7 0 -22 -3 -34 -6 -13 -3 -28 1 -37 11 -23 22 -5 55 28 55 16 0 25 6 25 15 0
18 -36 20 -43 3 -2 -7 -8 -10 -12 -6 -13 12 15 38 41 38 13 0 28 -9 34 -19z
m178 7 c7 -7 12 -31 12 -54 0 -37 -3 -42 -27 -47 -31 -6 -63 7 -63 26 0 20 22
37 47 37 14 0 23 6 23 15 0 18 -31 20 -48 3 -9 -9 -12 -8 -12 4 0 27 47 37 68
16z m1776 -4 c17 -16 21 -61 8 -81 -4 -6 -18 -14 -32 -18 -52 -13 -89 56 -51
94 25 25 54 27 75 5z m224 4 c7 -7 12 -31 12 -54 0 -37 -3 -42 -27 -47 -31 -6
-63 7 -63 26 0 20 22 37 47 37 14 0 23 6 23 15 0 18 -31 20 -48 3 -9 -9 -12
-8 -12 4 0 27 47 37 68 16z m119 0 c15 -12 18 -98 4 -98 -6 0 -11 19 -13 43
-2 34 -7 42 -23 42 -16 0 -21 -8 -23 -42 -5 -62 -22 -53 -22 10 0 54 0 54 32
55 18 0 38 -4 45 -10z m227 6 c12 -4 16 -20 16 -54 0 -43 -3 -48 -25 -54 -29
-7 -65 8 -65 27 0 20 22 37 47 37 14 0 23 6 23 15 0 8 -9 15 -20 15 -11 0 -20
-4 -20 -10 0 -5 -4 -10 -10 -10 -5 0 -10 6 -10 14 0 22 33 32 64 20z m116 -9
c18 -22 4 -31 -16 -11 -13 14 -19 14 -32 4 -13 -11 -10 -15 22 -27 44 -17 52
-57 12 -67 -25 -6 -66 10 -66 26 0 13 6 13 29 -2 20 -12 56 -4 47 11 -3 4 -19
11 -36 14 -23 5 -30 12 -30 30 0 13 3 27 7 30 12 12 50 7 63 -8z m274 -1 c9
-8 16 -32 16 -53 0 -35 -3 -39 -30 -44 -36 -8 -56 -1 -64 20 -9 21 12 43 40
43 15 0 24 6 24 15 0 18 -36 20 -43 3 -2 -7 -8 -10 -12 -6 -11 11 14 38 36 38
9 0 25 -7 33 -16z m56 -39 c0 -30 -4 -55 -10 -55 -5 0 -10 25 -10 55 0 30 5
55 10 55 6 0 10 -25 10 -55z m920 -6 c0 -37 -4 -49 -15 -49 -11 0 -15 12 -15
48 0 27 3 52 6 55 15 14 24 -7 24 -54z m80 52 c0 -4 -9 -12 -20 -19 -14 -8
-20 -23 -20 -47 0 -19 -4 -35 -10 -35 -5 0 -10 24 -10 53 0 53 0 54 30 54 17
0 30 -3 30 -6z m40 -52 c0 -37 -4 -49 -15 -49 -11 0 -15 12 -15 48 0 27 3 52
6 55 15 14 24 -7 24 -54z m84 55 c9 -3 16 -13 16 -22 0 -13 -3 -12 -20 3 -15
13 -24 15 -31 8 -14 -14 -3 -33 20 -33 42 0 54 -44 16 -62 -20 -9 -29 -7 -52
7 -20 13 -24 20 -13 23 8 3 16 0 18 -6 4 -14 38 -16 47 -2 3 5 -10 16 -30 24
-62 26 -34 84 29 60z m466 -13 c5 -11 10 -35 10 -54 0 -30 -4 -35 -30 -40 -43
-9 -62 1 -58 32 2 20 9 27 31 29 15 2 27 10 27 17 0 22 -17 27 -35 9 -20 -20
-33 -11 -15 11 18 21 57 19 70 -4z m290 10 c0 -3 -9 -12 -20 -19 -14 -8 -20
-23 -20 -47 0 -19 -4 -35 -10 -35 -5 0 -10 24 -10 53 0 51 1 52 30 53 17 1 30
-2 30 -5z m32 -38 c3 -40 6 -48 23 -48 17 0 20 8 23 48 4 65 22 60 22 -7 0
-51 -2 -54 -27 -59 -47 -9 -63 7 -63 63 0 64 18 65 22 3z m300 30 c45 -41 -2
-120 -57 -95 -32 15 -42 55 -21 87 19 29 51 32 78 8z m118 -3 c11 -11 20 -29
20 -40 0 -22 -33 -60 -53 -60 -48 0 -74 65 -40 102 21 24 48 23 73 -2z m310 1
c5 -11 10 -35 10 -54 0 -30 -4 -35 -30 -40 -43 -9 -62 1 -58 32 2 20 9 27 31
29 15 2 27 10 27 17 0 22 -17 27 -35 9 -20 -20 -33 -11 -15 11 18 21 57 19 70
-4z m183 10 c4 0 7 -25 6 -53 -1 -56 -4 -55 -14 5 -4 27 -11 37 -24 37 -22 0
-31 -19 -31 -61 0 -45 -18 -34 -22 14 -2 34 -7 42 -23 42 -16 0 -21 -8 -23
-42 -5 -62 -22 -53 -22 11 l0 53 73 -2 c39 -2 75 -3 80 -4z m-12313 -378 c0
-5 -4 -13 -8 -20 -6 -9 -11 -7 -20 7 -11 17 -10 20 8 20 11 0 20 -3 20 -7z
m1980 -8 c-10 -12 -16 -13 -26 -4 -20 16 -18 19 12 19 22 0 25 -2 14 -15z
m2540 11 c0 -3 -4 -8 -10 -11 -5 -3 -10 -1 -10 4 0 6 5 11 10 11 6 0 10 -2 10
-4z m3150 -6 c-8 -5 -19 -10 -25 -10 -5 0 -3 5 5 10 8 5 20 10 25 10 6 0 3 -5
-5 -10z m4804 -5 c-4 -8 -10 -15 -14 -15 -4 0 -10 7 -14 15 -4 10 1 15 14 15
13 0 18 -5 14 -15z m-12977 -207 l27 -61 28 61 c15 34 32 62 38 62 6 0 10 -31
10 -80 0 -47 -4 -80 -10 -80 -5 0 -10 24 -11 53 l0 52 -21 -52 c-11 -29 -27
-53 -34 -53 -7 0 -22 24 -33 53 l-20 52 0 -52 c-1 -29 -5 -53 -11 -53 -6 0
-10 33 -10 80 0 48 4 80 10 80 6 0 23 -28 37 -62z m730 36 c32 -32 23 -43 -13
-15 -15 11 -33 21 -40 21 -21 0 -54 -37 -54 -62 0 -50 61 -76 96 -40 17 16 17
17 -7 20 -44 6 -45 22 -1 22 35 0 42 -3 42 -20 0 -31 -36 -60 -74 -60 -68 0
-101 86 -51 135 31 32 69 32 102 -1z m1100 2 c37 -32 23 -44 -16 -15 -26 19
-34 21 -55 11 -55 -25 -36 -112 24 -112 19 0 33 7 40 20 9 17 8 20 -14 20 -14
0 -28 5 -31 10 -4 6 10 10 34 10 35 0 41 -3 41 -22 0 -59 -90 -81 -129 -32
-28 36 -27 79 4 109 31 32 66 32 102 1z m421 -61 c-2 -44 -8 -70 -15 -73 -10
-3 -13 16 -13 71 0 40 3 77 7 81 16 15 24 -15 21 -79z m154 68 c17 -15 25 -43
12 -43 -3 0 -14 10 -23 22 -12 14 -24 19 -35 15 -28 -11 -14 -39 24 -52 39
-13 53 -52 26 -74 -20 -17 -77 -10 -90 11 -14 23 1 36 17 14 16 -22 60 -18 65
6 2 12 -8 20 -37 28 -50 13 -64 45 -31 72 28 22 48 23 72 1z m1934 -58 l34
-50 0 63 c0 40 4 61 10 57 6 -3 10 -40 10 -81 0 -90 -8 -92 -62 -14 l-38 53 0
-51 c0 -28 -4 -54 -10 -57 -6 -4 -10 24 -10 76 0 94 6 94 66 4z m761 18 l38
-58 3 53 c5 80 22 62 22 -23 0 -41 -4 -75 -9 -75 -5 0 -26 25 -47 56 l-39 57
-3 -57 c-4 -82 -22 -69 -22 17 0 63 4 87 16 87 1 0 19 -26 41 -57z m161 -29
c-2 -38 -7 -69 -13 -69 -11 0 -19 119 -10 143 13 34 26 -8 23 -74z m162 40 l0
-35 27 20 c34 28 43 18 13 -14 l-24 -25 29 -30 c33 -35 14 -42 -22 -8 l-23 21
0 -22 c0 -14 -5 -21 -12 -19 -14 5 -24 118 -14 145 10 25 26 3 26 -33z m2218
30 c26 -18 29 -59 5 -72 -16 -9 -16 -12 1 -37 26 -39 9 -45 -20 -7 -32 41 -54
42 -54 2 0 -16 -4 -30 -10 -30 -11 0 -14 142 -3 153 12 12 58 7 81 -9z m222
-14 c0 -12 6 -17 18 -14 9 2 23 0 31 -5 17 -11 28 -111 12 -111 -6 0 -11 16
-11 38 0 76 -46 86 -52 11 -2 -23 -9 -44 -15 -47 -10 -3 -13 16 -13 71 0 40 3
77 6 80 11 10 24 -3 24 -23z m455 6 c37 -37 18 -76 -37 -76 -24 0 -28 -4 -28
-30 0 -16 -4 -30 -10 -30 -6 0 -10 33 -10 80 l0 80 30 0 c19 0 40 -9 55 -24z
m1519 -57 c14 -36 26 -69 26 -72 0 -16 -19 -5 -25 13 -5 15 -15 20 -40 20 -25
0 -35 -5 -40 -20 -9 -30 -28 -25 -21 5 13 52 57 138 65 129 5 -5 21 -39 35
-75z m776 62 c0 -5 10 -30 22 -57 l21 -49 28 63 c16 35 33 61 39 57 13 -8 13
-155 0 -155 -5 0 -10 24 -11 53 l-1 52 -24 -52 c-13 -29 -28 -53 -33 -53 -4 0
-18 21 -29 48 l-20 47 -1 -42 c-1 -23 -5 -45 -11 -48 -11 -7 -15 137 -4 148 8
8 24 -1 24 -12z m490 -67 c0 -56 -3 -75 -12 -72 -14 5 -24 118 -14 145 13 33
26 -4 26 -73z m972 69 c10 -9 18 -23 18 -31 0 -12 -6 -10 -24 8 -15 13 -31 20
-41 16 -27 -10 -13 -38 25 -51 59 -20 50 -85 -11 -85 -27 0 -59 22 -59 41 0
15 17 10 24 -7 8 -21 60 -15 64 8 2 12 -8 20 -37 28 -36 9 -41 14 -41 40 0 46
47 65 82 33z m706 1 c12 -8 22 -22 22 -31 0 -14 -4 -13 -23 5 -27 25 -40 27
-56 8 -14 -16 1 -31 42 -41 37 -10 50 -36 31 -63 -24 -34 -104 -23 -104 13 0
20 16 19 24 -1 8 -21 60 -15 64 8 2 12 -8 20 -36 28 -44 11 -57 31 -42 60 17
32 45 37 78 14z m72 -15 c0 -15 5 -19 19 -14 30 9 51 -20 51 -71 0 -59 -18
-56 -22 4 -3 39 -6 47 -23 47 -17 0 -20 -8 -23 -47 -5 -79 -22 -54 -22 33 0
51 4 78 10 74 6 -3 10 -15 10 -26z m-10310 11 c0 -5 -7 -10 -15 -10 -8 0 -15
5 -15 10 0 6 7 10 15 10 8 0 15 -4 15 -10z m170 0 c0 -5 -7 -10 -15 -10 -8 0
-15 5 -15 10 0 6 7 10 15 10 8 0 15 -4 15 -10z m2030 -63 l0 -74 -37 -1 c-47
-2 -63 12 -63 54 0 41 25 67 56 60 19 -5 24 -2 24 14 0 11 5 20 10 20 6 0 10
-31 10 -73z m470 63 c0 -5 -7 -10 -16 -10 -8 0 -12 5 -9 10 3 6 10 10 16 10 5
0 9 -4 9 -10z m540 0 c0 -5 -7 -10 -15 -10 -8 0 -15 5 -15 10 0 6 7 10 15 10
8 0 15 -4 15 -10z m1950 0 c0 -5 -4 -10 -10 -10 -5 0 -10 5 -10 10 0 6 5 10
10 10 6 0 10 -4 10 -10z m460 -63 l0 -74 -40 -1 c-32 -2 -43 3 -56 23 -21 32
-11 72 21 87 19 8 28 8 40 -2 13 -11 15 -9 15 14 0 14 5 26 10 26 6 0 10 -31
10 -73z m590 63 c0 -5 -7 -10 -15 -10 -8 0 -15 5 -15 10 0 6 7 10 15 10 8 0
15 -4 15 -10z m50 0 c0 -5 -7 -10 -15 -10 -8 0 -15 5 -15 10 0 6 7 10 15 10 8
0 15 -4 15 -10z m1980 0 c0 -5 -7 -10 -15 -10 -8 0 -15 5 -15 10 0 6 7 10 15
10 8 0 15 -4 15 -10z m50 -4 c0 -29 70 -26 70 3 1 14 2 14 14 -1 7 -10 18 -18
25 -18 6 0 11 -4 11 -10 0 -5 -7 -10 -15 -10 -11 0 -15 -11 -15 -40 0 -29 4
-40 15 -40 8 0 15 -5 15 -11 0 -6 -10 -9 -22 -7 -20 3 -23 10 -26 51 -3 48 -4
48 -35 45 -28 -3 -32 -7 -35 -36 -3 -27 1 -35 17 -39 24 -6 18 -23 -9 -23 -21
0 -30 19 -30 66 0 24 -5 34 -15 34 -11 0 -15 -12 -15 -50 0 -27 -4 -50 -10
-50 -6 0 -10 27 -10 61 0 33 4 58 9 55 14 -9 41 4 41 20 0 8 5 14 10 14 6 0
10 -6 10 -14z m1310 -7 c0 -15 4 -19 16 -15 33 13 54 -12 54 -64 0 -64 -18
-65 -22 -2 -3 39 -6 47 -23 47 -17 0 -20 -8 -23 -47 -5 -77 -22 -55 -22 27 0
43 4 75 10 75 6 0 10 -9 10 -21z m488 -50 l-3 -72 -37 -4 c-44 -4 -68 16 -68
57 0 39 39 67 69 50 19 -9 21 -8 21 15 0 14 5 25 10 25 7 0 10 -27 8 -71z
m-12423 17 c9 -14 15 -39 13 -58 -3 -30 -6 -33 -39 -36 -41 -3 -66 17 -54 45
5 10 7 24 6 31 -3 19 18 42 40 42 10 0 26 -11 34 -24z m113 11 c14 -10 17
-107 3 -107 -6 0 -11 21 -13 48 -3 39 -6 47 -23 47 -17 0 -20 -8 -23 -47 -4
-68 -22 -60 -22 10 l0 57 33 0 c17 0 38 -4 45 -8z m103 3 c15 -8 19 -21 19
-59 l0 -49 -42 2 c-37 1 -43 4 -46 25 -4 26 12 41 46 41 26 0 30 18 6 27 -10
4 -22 -1 -29 -10 -13 -19 -25 -22 -25 -8 0 13 29 41 41 41 6 0 19 -5 30 -10z
m60 -30 c7 -22 15 -40 19 -40 4 0 12 18 19 40 11 36 31 55 31 29 0 -22 -43
-110 -53 -106 -8 2 -47 92 -47 110 0 4 4 7 10 7 5 0 15 -18 21 -40z m363 24
c10 -9 16 -33 16 -59 l0 -43 -42 2 -43 1 -2 45 c-2 62 35 91 71 54z m96 7 c0
-3 -9 -12 -20 -19 -15 -9 -20 -23 -20 -52 0 -22 -4 -40 -10 -40 -6 0 -10 26
-10 58 0 56 0 57 30 58 17 1 30 -2 30 -5z m108 -58 c2 -46 -1 -65 -13 -77 -21
-20 -59 -21 -75 -1 -18 22 -5 31 15 11 12 -12 21 -13 36 -6 29 16 23 30 -10
24 -22 -5 -32 -1 -45 17 -21 31 -20 55 4 79 14 14 30 19 52 16 33 -3 33 -4 36
-63z m902 49 c43 -35 23 -102 -31 -102 -70 0 -73 118 -3 120 7 0 22 -8 34 -18z
m127 5 c6 -4 14 -19 17 -33 10 -38 -17 -74 -54 -74 -23 0 -30 -4 -30 -20 0
-11 -4 -20 -10 -20 -6 0 -10 33 -10 79 l0 79 38 -2 c20 -1 42 -5 49 -9z m107
-3 c10 -9 16 -33 16 -59 l0 -43 -42 2 c-37 1 -43 4 -46 25 -4 26 12 41 46 41
26 0 30 18 6 27 -10 4 -22 -1 -29 -10 -13 -19 -25 -22 -25 -8 0 14 30 41 45
41 7 0 21 -7 29 -16z m326 7 c0 -3 -9 -12 -20 -19 -15 -9 -20 -23 -20 -53 0
-28 -4 -39 -12 -37 -13 4 -23 79 -15 102 5 11 67 18 67 7z m30 -57 c0 -30 -4
-54 -10 -54 -6 0 -10 27 -10 61 0 37 4 58 10 54 6 -3 10 -31 10 -61z m110 46
c13 -20 13 -100 0 -100 -5 0 -10 15 -10 34 0 44 -9 66 -26 66 -18 0 -34 -32
-34 -69 0 -17 -4 -31 -10 -31 -10 0 -15 102 -5 112 11 11 77 1 85 -12z m99
-25 l17 -38 18 44 c13 30 20 38 23 27 5 -21 -32 -108 -46 -108 -5 0 -18 24
-28 53 l-18 52 -5 -49 c-8 -74 -30 -72 -30 2 0 59 1 61 26 58 19 -2 30 -13 43
-41z m149 33 c7 -7 12 -34 12 -60 l0 -48 -40 0 c-28 0 -43 5 -47 16 -9 24 10
49 41 52 29 4 35 19 10 29 -10 4 -22 -1 -30 -12 -8 -10 -17 -16 -21 -12 -9 10
27 47 47 47 9 0 21 -5 28 -12z m108 -2 c25 -19 12 -31 -15 -14 -16 10 -23 10
-32 1 -10 -10 -8 -14 7 -18 38 -12 49 -23 49 -46 0 -19 -6 -25 -31 -27 -31 -3
-65 21 -49 36 4 4 10 1 12 -5 6 -17 56 -17 51 -1 -3 7 -15 15 -28 18 -13 3
-28 13 -34 23 -9 15 -7 21 8 33 25 18 37 18 62 0z m108 -2 c10 -9 16 -33 16
-59 l0 -43 -42 2 c-37 1 -43 4 -46 25 -4 26 12 41 45 41 16 0 21 4 17 15 -4 8
-13 15 -20 15 -8 0 -17 -7 -20 -15 -8 -19 -24 -20 -24 0 0 15 26 34 47 35 6 0
19 -7 27 -16z m118 7 c12 -2 21 -92 11 -102 -7 -7 -12 6 -15 36 -7 54 -13 63
-36 49 -10 -7 -18 -27 -20 -53 -5 -63 -22 -49 -22 18 l0 58 38 -2 c20 -1 40
-3 44 -4z m1249 -1 c15 -8 19 -22 19 -60 l0 -50 -40 0 c-28 0 -43 5 -47 16 -9
24 10 49 41 52 29 4 35 19 11 29 -9 3 -22 -2 -29 -12 -8 -12 -15 -14 -20 -7
-7 11 19 42 35 42 6 0 19 -5 30 -10z m127 -4 c14 -9 16 -106 3 -106 -6 0 -11
21 -13 48 -3 39 -6 47 -23 47 -17 0 -20 -8 -23 -47 -4 -68 -22 -60 -22 10 l0
58 33 -1 c18 -1 39 -5 45 -9z m230 2 c7 -7 12 -33 12 -58 0 -45 -1 -46 -34
-48 -38 -3 -62 19 -51 45 5 10 7 24 6 31 -6 34 42 55 67 30z m120 -2 c14 -9
16 -106 2 -106 -5 0 -10 17 -10 38 0 45 -13 67 -34 59 -11 -5 -16 -19 -16 -53
0 -32 -4 -44 -12 -42 -13 5 -23 79 -15 102 5 13 66 14 85 2z m252 -52 c0 -30
-4 -54 -10 -54 -6 0 -10 27 -10 61 0 37 4 58 10 54 6 -3 10 -31 10 -61z m150
46 c33 -33 26 -50 -20 -50 -29 0 -40 -4 -40 -15 0 -17 45 -21 55 -5 3 6 11 10
17 10 6 0 3 -9 -7 -20 -34 -37 -95 -13 -95 37 0 26 32 63 55 63 8 0 24 -9 35
-20z m215 -4 c9 -14 15 -39 13 -58 -3 -30 -6 -33 -39 -36 -41 -3 -66 17 -54
45 5 10 7 24 6 31 -3 19 18 42 40 42 10 0 26 -11 34 -24z m113 11 c14 -10 17
-107 3 -107 -6 0 -11 21 -13 48 -3 39 -6 47 -23 47 -17 0 -20 -8 -23 -47 -4
-68 -22 -60 -22 10 l0 57 33 0 c17 0 38 -4 45 -8z m62 -53 c0 -40 -4 -55 -12
-52 -14 5 -23 80 -14 105 12 30 26 0 26 -53z m1950 6 c0 -33 -4 -60 -10 -60
-6 0 -10 27 -10 60 0 33 4 60 10 60 6 0 10 -27 10 -60z m96 46 c10 -8 16 -18
11 -22 -4 -4 -13 -2 -19 4 -17 17 -38 15 -38 -3 0 -8 9 -15 19 -15 31 0 53
-28 41 -51 -13 -23 -62 -26 -80 -4 -16 19 -5 34 12 17 15 -15 48 -16 48 -1 0
5 -13 15 -29 20 -36 13 -45 33 -25 54 19 19 35 19 60 1z m228 -2 c10 -9 16
-33 16 -59 l0 -43 -42 2 c-37 1 -43 4 -46 25 -4 26 12 41 46 41 26 0 30 18 6
27 -10 4 -22 -1 -29 -10 -15 -21 -25 -22 -25 -2 0 15 26 34 47 35 6 0 19 -7
27 -16z m362 7 c24 19 27 2 5 -20 -13 -13 -21 -34 -21 -56 0 -19 -4 -35 -10
-35 -11 0 -14 103 -3 114 4 4 9 2 11 -4 3 -8 8 -7 18 1z m112 -7 c12 -8 22
-24 22 -35 0 -16 -7 -19 -40 -19 -22 0 -40 -5 -40 -10 0 -18 31 -24 52 -11 25
15 35 7 18 -14 -15 -18 -61 -20 -78 -3 -21 21 -15 75 10 92 12 9 25 16 28 16
3 0 16 -7 28 -16z m117 5 c6 -1 20 1 33 5 35 12 52 -9 52 -65 0 -27 -4 -49
-10 -49 -5 0 -10 20 -10 44 0 25 -5 48 -10 51 -20 12 -40 -17 -40 -56 0 -22
-4 -39 -10 -39 -5 0 -10 20 -10 44 0 48 -8 60 -34 50 -11 -4 -16 -19 -16 -50
0 -24 -4 -44 -10 -44 -6 0 -10 26 -10 58 l0 58 33 -2 c17 -1 37 -3 42 -5z
m135 -63 c0 -61 -11 -86 -37 -86 -7 0 -13 5 -13 10 0 6 7 10 15 10 12 0 15 15
15 71 0 44 4 68 10 64 6 -3 10 -34 10 -69z m48 8 c-2 -27 -7 -49 -13 -49 -11
0 -19 79 -10 103 11 30 26 -5 23 -54z m1160 53 c14 -10 17 -107 3 -107 -6 0
-11 21 -13 48 -3 39 -6 47 -23 47 -17 0 -20 -8 -23 -47 -4 -68 -22 -60 -22 10
l0 57 33 0 c17 0 38 -4 45 -8z m62 -43 c0 -37 3 -44 19 -44 17 0 20 8 23 48 4
63 23 56 23 -10 0 -52 0 -52 -35 -56 -24 -2 -38 1 -47 14 -13 18 -18 86 -7 97
14 14 24 -6 24 -49z m186 31 c18 -25 18 -45 -2 -74 -12 -17 -24 -22 -45 -19
-25 4 -29 1 -29 -19 0 -13 -4 -23 -10 -23 -6 0 -10 33 -10 78 l0 78 41 -1 c28
0 45 -6 55 -20z m95 15 c15 -8 19 -21 19 -59 l0 -49 -42 2 c-33 1 -44 5 -46
19 -5 25 16 47 44 47 27 0 32 18 8 27 -10 4 -22 -1 -30 -12 -8 -10 -17 -16
-21 -12 -7 8 25 47 39 47 5 0 18 -5 29 -10z m79 2 c14 9 22 9 35 -2 12 -10 19
-10 27 -2 32 32 68 -3 68 -64 0 -24 -4 -44 -10 -44 -5 0 -10 17 -10 38 0 45
-13 67 -34 59 -11 -4 -16 -19 -16 -46 0 -56 -16 -60 -23 -5 -5 51 -10 59 -32
51 -10 -4 -15 -20 -15 -46 0 -22 -4 -43 -10 -46 -6 -4 -10 17 -9 57 0 35 3 58
6 51 3 -9 9 -10 23 -1z m658 -4 c7 -7 12 -32 12 -57 0 -45 -1 -46 -34 -48 -39
-3 -62 18 -51 44 5 10 7 24 6 31 -6 34 42 55 67 30z m1263 2 c15 -8 19 -21 19
-59 l0 -49 -42 2 c-33 1 -44 5 -46 19 -5 25 16 47 44 47 27 0 32 18 8 27 -10
4 -22 -1 -30 -12 -8 -10 -17 -16 -21 -12 -7 8 25 47 39 47 5 0 18 -5 29 -10z
m79 0 c12 6 21 6 25 1 3 -5 -4 -12 -15 -16 -15 -5 -20 -15 -20 -45 0 -21 -4
-42 -10 -45 -6 -4 -10 17 -9 57 0 35 3 57 6 51 3 -9 10 -10 23 -3z m101 0 c15
-8 19 -21 19 -59 0 -47 0 -48 -34 -49 -39 -2 -62 19 -51 45 5 10 7 24 6 31 -3
16 17 42 31 42 5 0 18 -5 29 -10z m533 -6 c10 -9 16 -33 16 -59 l0 -43 -42 2
c-37 1 -43 4 -46 25 -4 26 12 41 46 41 26 0 30 18 6 27 -10 4 -22 -1 -29 -10
-13 -19 -25 -22 -25 -8 0 14 30 41 45 41 7 0 21 -7 29 -16z m77 6 c25 14 24
-1 -1 -23 -13 -11 -20 -29 -20 -52 0 -19 -4 -35 -10 -35 -11 0 -14 103 -3 114
4 4 9 3 11 -3 3 -8 10 -8 23 -1z m65 1 c11 9 21 9 38 1 14 -6 28 -7 37 -1 19
12 25 11 43 -7 17 -17 23 -104 7 -104 -6 0 -11 21 -13 48 -3 39 -6 47 -23 47
-17 0 -20 -8 -23 -47 -2 -27 -7 -48 -12 -48 -5 0 -10 21 -12 48 -3 39 -6 47
-23 47 -16 0 -21 -8 -23 -40 -6 -69 -22 -65 -21 6 0 35 3 58 6 51 4 -10 8 -10
19 -1z m225 -1 c15 -8 19 -21 19 -59 l0 -49 -42 2 c-37 1 -43 4 -46 25 -4 26
12 41 46 41 26 0 30 18 6 27 -10 4 -22 -1 -29 -10 -13 -19 -25 -22 -25 -8 0
13 29 41 41 41 6 0 19 -5 30 -10z"/>
<path d="M3530 6390 l0 -60 58 0 c66 0 92 18 92 63 0 37 -34 57 -97 57 l-53 0
0 -60z"/>
<path d="M3530 6205 l0 -65 63 0 c70 0 93 12 102 52 5 21 1 33 -19 52 -21 22
-34 26 -86 26 l-60 0 0 -65z"/>
<path d="M5173 6318 c-43 -47 -37 -140 10 -173 79 -56 162 58 112 154 -24 47
-87 57 -122 19z"/>
<path d="M5671 6321 c-42 -42 -38 -136 6 -171 34 -27 66 -25 100 4 24 21 28
31 28 79 0 45 -5 60 -24 81 -30 32 -82 35 -110 7z"/>
<path d="M10003 6318 c-43 -47 -37 -140 10 -173 79 -56 162 58 112 154 -24 47
-87 57 -122 19z"/>
<path d="M13511 6314 c-32 -40 -29 -126 4 -159 24 -24 57 -31 90 -19 45 18 61
131 24 178 -16 20 -29 26 -59 26 -30 0 -43 -6 -59 -26z"/>
<path d="M14470 6322 c-23 -19 -37 -83 -26 -126 21 -86 128 -87 156 -1 32 98
-57 186 -130 127z"/>
<path d="M3890 6200 c-24 -24 -24 -29 -4 -58 32 -46 108 -17 120 46 l7 32 -52
0 c-38 0 -56 -5 -71 -20z"/>
<path d="M4845 6325 c-14 -13 -25 -33 -25 -45 0 -18 6 -20 75 -20 72 0 75 1
75 23 0 31 -40 67 -74 67 -15 0 -37 -10 -51 -25z"/>
<path d="M7898 6209 c-25 -14 -24 -65 1 -79 52 -27 111 5 111 60 0 29 -1 30
-47 30 -27 0 -56 -5 -65 -11z"/>
<path d="M8585 6325 c-14 -13 -25 -33 -25 -45 0 -18 6 -20 75 -20 72 0 75 1
75 23 0 31 -40 67 -74 67 -15 0 -37 -10 -51 -25z"/>
<path d="M9336 6204 c-34 -34 -8 -84 45 -84 38 0 69 32 69 70 0 29 -1 30 -49
30 -32 0 -55 -6 -65 -16z"/>
<path d="M11375 6316 c-34 -34 -41 -86 -19 -133 49 -98 172 -48 161 65 -9 84
-88 122 -142 68z"/>
<path d="M12042 6204 c-42 -29 -14 -84 42 -84 34 0 76 41 76 75 0 23 -3 25
-48 25 -27 0 -57 -7 -70 -16z"/>
<path d="M12744 6342 c-16 -11 -44 -55 -44 -69 0 -10 22 -13 81 -13 l81 0 -6
28 c-12 48 -75 80 -112 54z"/>
<path d="M15332 6342 c-60 -9 -80 -126 -31 -178 55 -58 129 -10 129 84 0 64
-41 103 -98 94z"/>
<path d="M10492 5603 c-21 -8 -42 -59 -42 -102 0 -110 126 -138 160 -36 30 90
-38 170 -118 138z"/>
<path d="M5439 5584 c-19 -21 -24 -36 -24 -81 0 -48 4 -58 28 -79 37 -32 81
-31 112 2 27 29 34 63 23 114 -14 69 -92 94 -139 44z"/>
<path d="M7043 5595 c-32 -23 -46 -75 -33 -124 25 -93 130 -96 160 -5 32 97
-52 182 -127 129z"/>
<path d="M7931 5588 c-42 -44 -39 -133 6 -168 34 -27 66 -25 100 4 24 21 28
31 28 79 0 45 -5 60 -24 81 -31 33 -82 35 -110 4z"/>
<path d="M8250 5470 c-24 -24 -24 -29 -4 -58 33 -47 124 -9 124 53 0 23 -3 25
-50 25 -37 0 -55 -5 -70 -20z"/>
<path d="M9074 5612 c-16 -11 -44 -55 -44 -69 0 -10 22 -13 81 -13 l81 0 -6
28 c-12 48 -75 80 -112 54z"/>
<path d="M9810 5470 c-24 -24 -24 -29 -4 -58 33 -47 124 -9 124 53 0 23 -3 25
-50 25 -37 0 -55 -5 -70 -20z"/>
<path d="M13059 5584 c-19 -21 -24 -36 -24 -81 0 -48 4 -58 28 -79 37 -32 81
-31 112 2 27 29 34 63 23 114 -14 69 -92 94 -139 44z"/>
<path d="M8245 4293 c2 -10 4 -21 4 -26 1 -4 12 -5 25 -1 13 3 27 1 30 -5 9
-14 26 -14 26 -1 0 19 -40 50 -64 50 -18 0 -23 -5 -21 -17z"/>
<path d="M7865 4280 c-3 -5 -2 -10 4 -10 5 0 13 5 16 10 3 6 2 10 -4 10 -5 0
-13 -4 -16 -10z"/>
<path d="M8132 4281 c-10 -6 -5 -11 18 -20 39 -13 61 -4 35 16 -22 15 -35 16
-53 4z"/>
<path d="M8059 4247 c9 -11 27 -17 55 -16 39 1 40 1 11 9 -16 5 -41 12 -55 16
-22 7 -24 6 -11 -9z"/>
<path d="M8210 4250 c0 -5 7 -10 15 -10 8 0 15 5 15 10 0 6 -7 10 -15 10 -8 0
-15 -4 -15 -10z"/>
<path d="M7911 4221 c-51 -21 -40 -39 13 -21 38 12 69 40 45 39 -8 0 -34 -8
-58 -18z"/>
<path d="M8043 4175 c-17 -14 -17 -14 2 -15 11 0 26 4 33 9 11 7 11 9 -1 14
-8 3 -23 -1 -34 -8z"/>
<path d="M8986 3733 c-6 -14 -5 -15 5 -6 7 7 10 15 7 18 -3 3 -9 -2 -12 -12z"/>
<path d="M11095 3820 c-35 -13 -50 -39 -38 -60 8 -12 8 -21 1 -28 -23 -23 45
-92 91 -92 25 0 24 2 -11 22 -43 25 -52 44 -12 26 23 -11 29 -10 46 12 18 23
21 23 33 7 7 -9 17 -17 24 -17 17 0 13 47 -5 54 -12 4 -15 2 -10 -9 4 -13 2
-14 -14 -5 -10 5 -28 10 -38 10 -14 0 -19 6 -18 17 3 21 58 35 100 27 21 -5
27 -3 24 7 -3 8 -9 14 -14 15 -5 0 -16 3 -24 7 -29 11 -115 16 -135 7z"/>
<path d="M11156 3478 c11 -38 34 -78 44 -78 5 0 13 -12 16 -26 8 -30 21 -21
26 18 2 22 -6 36 -42 68 -24 22 -46 40 -48 40 -2 0 0 -10 4 -22z"/>
<path d="M11095 3460 c-3 -5 -1 -10 4 -10 6 0 11 5 11 10 0 6 -2 10 -4 10 -3
0 -8 -4 -11 -10z"/>
<path d="M11127 3353 c-4 -3 -7 -15 -7 -27 0 -15 3 -17 12 -8 7 7 22 12 35 12
14 0 23 6 23 15 0 15 -50 22 -63 8z"/>
<path d="M5910 3472 c0 -5 7 -13 16 -16 10 -4 14 -1 12 6 -5 15 -28 23 -28 10z"/>
<path d="M5806 3457 c-14 -10 -16 -16 -7 -22 15 -9 35 8 30 24 -3 8 -10 7 -23
-2z"/>
<path d="M5711 3248 c0 -9 -4 -25 -7 -35 -5 -17 -5 -17 6 0 6 10 9 25 7 35 -4
15 -5 15 -6 0z"/>
<path d="M5677 3155 c-10 -22 -16 -49 -14 -60 2 -16 7 -11 20 20 10 22 16 49
14 60 -2 16 -7 11 -20 -20z"/>
<path d="M5590 2590 c0 -5 5 -10 11 -10 5 0 7 5 4 10 -3 6 -8 10 -11 10 -2 0
-4 -4 -4 -10z"/>
<path d="M12495 3170 c3 -5 8 -10 11 -10 2 0 4 5 4 10 0 6 -5 10 -11 10 -5 0
-7 -4 -4 -10z"/>
<path d="M11820 2862 c0 -5 12 -19 26 -33 l27 -24 -17 33 c-15 29 -36 43 -36
24z"/>
<path d="M12190 2746 c4 -4 16 -4 26 2 16 9 14 10 -8 9 -15 -1 -23 -6 -18 -11z"/>
<path d="M11975 2560 c3 -5 8 -10 11 -10 2 0 4 5 4 10 0 6 -5 10 -11 10 -5 0
-7 -4 -4 -10z"/>
<path d="M12526 2520 c10 -16 19 -28 21 -26 6 6 -20 56 -29 56 -5 0 -1 -13 8
-30z"/>
<path d="M11960 2502 c0 -5 10 -17 21 -28 22 -19 22 -19 10 3 -12 24 -31 39
-31 25z"/>
<path d="M12467 2292 c-9 -14 5 -62 19 -62 15 0 29 43 19 59 -7 13 -32 15 -38
3z"/>
<path d="M12155 2220 c8 -22 14 -43 14 -45 0 -15 37 -105 43 -105 15 0 19 22
7 37 -8 8 -12 28 -11 44 2 17 -1 29 -8 29 -6 0 -17 15 -25 34 -21 50 -37 54
-20 6z"/>
<path d="M12530 2225 c0 -6 13 -66 29 -135 25 -112 28 -121 35 -89 6 33 2 54
-30 169 -8 27 -34 70 -34 55z"/>
<path d="M12375 2180 c-26 -29 -15 -32 15 -4 13 13 20 24 14 24 -6 0 -19 -9
-29 -20z"/>
<path d="M4470 3655 c-36 -7 -68 -13 -72 -14 -15 -2 -8 -40 9 -50 9 -5 17 -21
18 -36 0 -55 93 -90 169 -65 37 12 49 30 20 30 -8 0 -12 5 -9 11 4 5 17 9 28
8 38 -2 47 1 41 14 -6 16 -53 33 -119 43 l-50 7 43 15 c40 13 47 13 92 -6 59
-25 58 -8 -2 31 -46 30 -67 31 -168 12z m140 -99 c0 -3 -4 -8 -10 -11 -5 -3
-10 -1 -10 4 0 6 5 11 10 11 6 0 10 -2 10 -4z m-80 -16 c0 -5 -2 -10 -4 -10
-3 0 -8 5 -11 10 -3 6 -1 10 4 10 6 0 11 -4 11 -10z"/>
<path d="M4875 3560 c-3 -5 -1 -10 4 -10 6 0 11 5 11 10 0 6 -2 10 -4 10 -3 0
-8 -4 -11 -10z"/>
<path d="M4860 3515 c0 -8 11 -25 24 -36 14 -12 22 -28 19 -35 -3 -8 0 -14 6
-14 7 0 16 10 21 23 7 18 3 27 -23 50 -35 31 -47 34 -47 12z"/>
<path d="M4825 3440 c3 -5 8 -10 11 -10 2 0 4 5 4 10 0 6 -5 10 -11 10 -5 0
-7 -4 -4 -10z"/>
<path d="M4850 3405 c0 -24 1 -24 20 -8 11 10 20 21 20 25 0 5 -9 8 -20 8 -15
0 -20 -7 -20 -25z"/>
<path d="M14618 3630 c-40 -3 -62 -11 -75 -26 -10 -11 -26 -23 -35 -27 -22 -8
-23 -50 -2 -71 19 -20 22 -20 41 0 12 11 27 14 52 10 20 -3 47 -6 61 -6 20 0
22 -2 10 -11 -11 -7 -2 -8 30 -3 25 4 51 7 58 7 6 0 12 6 12 14 0 7 -4 13 -9
13 -14 0 -22 32 -11 45 8 9 4 16 -12 27 -45 29 -64 34 -120 28z m42 -50 c-20
-13 -63 -13 -55 0 3 6 21 10 38 10 24 0 28 -3 17 -10z"/>
<path d="M14205 3619 c-11 -17 -2 -18 25 -4 24 14 24 14 3 15 -12 0 -25 -5
-28 -11z"/>
<path d="M14276 3621 c-3 -5 4 -12 17 -15 21 -7 21 -7 2 -16 -11 -5 -32 -9
-47 -9 -31 -1 -78 -20 -78 -33 0 -4 27 -8 60 -8 45 0 62 -4 66 -15 4 -8 16
-15 28 -15 72 1 92 42 44 91 -29 28 -80 40 -92 20z"/>
<path d="M14618 3493 c6 -2 18 -2 25 0 6 3 1 5 -13 5 -14 0 -19 -2 -12 -5z"/>
<path d="M3232 3597 c-21 -23 -29 -47 -15 -47 4 0 17 10 30 22 21 20 27 21 75
9 37 -8 55 -8 62 -1 19 19 -23 40 -79 40 -41 0 -56 -5 -73 -23z"/>
<path d="M3358 3555 c-5 -5 -24 -8 -100 -14 -16 -1 -44 -38 -36 -46 2 -2 15
-6 31 -10 21 -6 27 -4 27 9 0 13 6 15 28 10 15 -4 32 -10 38 -15 15 -12 54 1
54 18 0 8 4 12 9 9 14 -9 21 20 8 33 -11 11 -50 15 -59 6z m12 -45 c0 -5 -4
-10 -10 -10 -5 0 -10 5 -10 10 0 6 5 10 10 10 6 0 10 -4 10 -10z"/>
<path d="M3286 3304 c-22 -21 -20 -27 4 -12 11 7 20 16 20 20 0 12 -7 10 -24
-8z"/>
<path d="M3330 3252 c0 -21 25 -28 60 -16 l35 13 -32 0 c-17 1 -38 4 -47 7 -9
3 -16 2 -16 -4z"/>
<path d="M3345 2980 c-3 -5 3 -10 15 -10 12 0 18 5 15 10 -3 6 -10 10 -15 10
-5 0 -12 -4 -15 -10z"/>
<path d="M3420 2645 c7 -9 15 -13 17 -11 7 7 -7 26 -19 26 -6 0 -6 -6 2 -15z"/>
<path d="M13065 3496 c-32 -26 -30 -45 3 -27 25 14 69 14 77 2 3 -6 -11 -13
-32 -17 -43 -7 -73 -21 -73 -32 0 -11 60 -45 67 -38 3 3 0 13 -8 22 -12 15
-11 16 11 9 14 -4 30 -13 36 -21 21 -27 84 13 97 61 9 29 -28 52 -94 60 -48 5
-57 3 -84 -19z m116 -89 c-13 -13 -26 -3 -16 12 3 6 11 8 17 5 6 -4 6 -10 -1
-17z"/>
<path d="M6366 2854 c-10 -27 -7 -34 20 -45 34 -12 38 -8 29 30 -7 34 -38 43
-49 15z"/>
<path d="M6420 2766 c0 -7 5 -28 12 -46 11 -33 11 -33 20 -10 6 16 4 30 -7 46
-18 27 -25 30 -25 10z"/>
<path d="M6869 2673 c-13 -16 -12 -17 4 -4 16 13 21 21 13 21 -2 0 -10 -8 -17
-17z"/>
<path d="M10833 2772 c-26 -20 -51 -41 -55 -46 -8 -12 69 -39 84 -30 5 3 35
-14 67 -39 61 -47 100 -71 106 -65 8 8 -51 66 -72 73 -28 8 -30 25 -5 25 13 0
18 6 16 23 -1 12 -3 27 -3 34 -1 6 -21 23 -46 36 l-44 25 -48 -36z m117 -27
c15 -18 5 -35 -21 -35 -14 0 -19 7 -19 25 0 28 21 33 40 10z"/>
<path d="M10920 2730 c0 -5 5 -10 10 -10 6 0 10 5 10 10 0 6 -4 10 -10 10 -5
0 -10 -4 -10 -10z"/>
<path d="M10752 2768 c3 -7 13 -15 24 -17 16 -3 17 -1 5 13 -16 19 -34 21 -29
4z"/>
<path d="M10715 2690 c-3 -5 1 -10 9 -10 8 0 18 5 21 10 3 6 -1 10 -9 10 -8 0
-18 -4 -21 -10z"/>
<path d="M11166 2672 c-3 -6 -1 -14 5 -17 15 -10 25 3 12 16 -7 7 -13 7 -17 1z"/>
<path d="M15740 2961 c0 -14 81 -113 88 -107 3 3 -8 23 -25 44 -16 20 -32 45
-36 55 -7 18 -27 24 -27 8z"/>
<path d="M15740 2911 c0 -6 4 -13 10 -16 6 -3 7 1 4 9 -7 18 -14 21 -14 7z"/>
<path d="M15221 2900 c0 -8 4 -22 9 -30 12 -18 12 -2 0 25 -6 13 -9 15 -9 5z"/>
<path d="M15770 2860 c6 -11 13 -20 16 -20 2 0 0 9 -6 20 -6 11 -13 20 -16 20
-2 0 0 -9 6 -20z"/>
<path d="M15676 2813 c-21 -24 -27 -40 -22 -58 6 -25 -19 -104 -38 -117 -6 -4
-5 -12 3 -22 19 -23 28 -20 46 14 9 17 13 30 10 30 -3 0 -1 10 6 21 8 17 13
19 19 8 7 -10 11 -10 24 1 15 11 15 15 2 29 -10 11 -14 33 -12 69 2 29 0 54
-3 56 -3 2 -19 -12 -35 -31z"/>
<path d="M15770 2804 c1 -13 29 -48 34 -43 2 2 -4 15 -15 28 -10 13 -19 19
-19 15z"/>
<path d="M15560 2791 c0 -6 5 -13 10 -16 6 -3 10 1 10 9 0 9 -4 16 -10 16 -5
0 -10 -4 -10 -9z"/>
<path d="M15863 2783 c-18 -7 -16 -26 5 -62 22 -39 40 -46 63 -25 49 44 -6
113 -68 87z"/>
<path d="M15720 2256 c0 -2 8 -10 18 -17 15 -13 16 -12 3 4 -13 16 -21 21 -21
13z"/>
<path d="M4092 2687 c-6 -6 -14 -26 -18 -42 -4 -17 -15 -47 -26 -67 -16 -33
-17 -46 -8 -106 9 -59 8 -84 -9 -169 -13 -62 -21 -140 -21 -201 0 -60 -4 -103
-10 -107 -11 -7 5 -35 19 -35 3 0 6 57 7 128 0 84 6 148 17 190 10 38 17 102
17 161 0 65 4 103 14 116 7 11 15 31 18 45 3 14 13 42 22 63 13 30 14 37 2 37
-7 0 -18 -6 -24 -13z"/>
<path d="M3930 2635 c-18 -22 -22 -89 -11 -175 l10 -75 -4 94 c-3 68 0 104 11
129 16 39 14 51 -6 27z"/>
<path d="M3880 2599 c0 -5 5 -7 10 -4 6 3 10 8 10 11 0 2 -4 4 -10 4 -5 0 -10
-5 -10 -11z"/>
<path d="M3825 2394 c-31 -71 -65 -208 -80 -314 -8 -57 -12 -106 -10 -108 5
-5 54 160 71 238 7 36 14 84 14 108 0 24 7 57 16 73 8 17 13 33 10 36 -3 3
-12 -12 -21 -33z"/>
<path d="M3840 2341 c-6 -16 -10 -42 -8 -57 l4 -29 17 37 c18 40 22 78 8 78
-5 0 -14 -13 -21 -29z"/>
<path d="M3977 2080 c3 -11 7 -20 9 -20 2 0 4 9 4 20 0 11 -4 20 -9 20 -5 0
-7 -9 -4 -20z"/>
<path d="M4596 2441 c-4 -6 -13 -8 -21 -4 -13 4 -15 -10 -15 -88 0 -52 -5
-138 -10 -192 -9 -93 -9 -98 12 -119 16 -16 20 -17 15 -4 -4 9 -2 38 3 64 9
42 30 342 24 350 -1 2 -5 -1 -8 -7z"/>
<path d="M7802 2008 c-12 -12 -17 -38 -7 -38 8 0 45 34 45 42 0 12 -25 9 -38
-4z"/>
<path d="M6980 2030 c0 -5 11 -10 25 -10 14 0 25 5 25 10 0 6 -11 10 -25 10
-14 0 -25 -4 -25 -10z"/>
<path d="M13020 2006 c0 -2 7 -6 15 -10 8 -3 15 -1 15 4 0 6 -7 10 -15 10 -8
0 -15 -2 -15 -4z"/>
<path d="M4737 1364 c-13 -13 -7 -65 8 -70 23 -9 46 16 43 45 -3 26 -35 41
-51 25z"/>
<path d="M6020 1350 c-8 -14 -8 -26 0 -40 15 -27 38 -25 52 5 20 44 -29 77
-52 35z"/>
<path d="M9020 1380 c0 -28 3 -31 28 -28 21 2 27 8 27 28 0 20 -6 26 -27 28
-25 3 -28 0 -28 -28z"/>
<path d="M12124 1356 c-3 -8 -4 -25 -2 -38 2 -17 9 -23 28 -23 22 0 25 4 25
35 0 29 -4 36 -23 38 -13 2 -24 -3 -28 -12z"/>
<path d="M12510 1380 c0 -28 3 -31 28 -28 21 2 27 8 27 28 0 20 -6 26 -27 28
-25 3 -28 0 -28 -28z"/>
<path d="M14777 1364 c-13 -13 -7 -65 8 -70 23 -9 46 16 43 45 -3 26 -35 41
-51 25z"/>
<path d="M3860 1350 c-8 -14 -8 -26 0 -40 21 -40 67 -11 56 35 -8 31 -41 34
-56 5z"/>
<path d="M4517 1323 c-10 -3 -16 -10 -14 -16 6 -19 41 -14 45 6 4 17 1 18 -31
10z"/>
<path d="M6215 1317 c-13 -10 -15 -16 -6 -21 17 -11 41 0 41 19 0 19 -11 19
-35 2z"/>
<path d="M6407 1323 c-10 -3 -16 -10 -14 -16 6 -19 41 -14 45 6 4 17 1 18 -31
10z"/>
<path d="M6943 1323 c-21 -8 -15 -33 7 -33 13 0 20 7 20 20 0 20 -5 23 -27 13z"/>
<path d="M9147 1319 c-21 -12 -14 -29 13 -29 18 0 34 23 23 34 -8 8 -15 7 -36
-5z"/>
<path d="M9337 1323 c-10 -3 -16 -10 -14 -16 6 -19 41 -14 45 6 4 17 1 18 -31
10z"/>
<path d="M9717 1323 c-24 -6 -16 -27 11 -31 17 -3 22 2 22 17 0 21 -2 22 -33
14z"/>
<path d="M9903 1323 c-7 -2 -13 -11 -13 -20 0 -21 44 -13 48 10 3 17 -10 21
-35 10z"/>
<path d="M11664 1356 c-11 -29 1 -61 23 -64 17 -3 24 3 29 22 3 14 4 33 0 41
-7 19 -45 20 -52 1z"/>
<path d="M11903 1323 c-7 -2 -13 -11 -13 -20 0 -21 44 -13 48 10 3 17 -10 21
-35 10z"/>
<path d="M12257 1323 c-10 -3 -16 -10 -14 -16 6 -19 41 -14 45 6 4 17 1 18
-31 10z"/>
<path d="M12637 1323 c-24 -6 -16 -27 11 -31 17 -3 22 2 22 17 0 21 -2 22 -33
14z"/>
<path d="M14283 1323 c-21 -8 -15 -33 7 -33 13 0 20 7 20 20 0 20 -5 23 -27
13z"/>
<path d="M14890 1355 c-15 -18 -10 -45 12 -59 26 -16 53 14 44 48 -7 29 -36
35 -56 11z"/>
<path d="M15004 1344 c-9 -34 18 -64 44 -48 22 14 27 41 12 59 -20 24 -49 18
-56 -11z"/>
<path d="M15333 1323 c-21 -8 -15 -33 7 -33 13 0 20 7 20 20 0 20 -5 23 -27
13z"/>
<path d="M10320 800 c0 -27 3 -30 30 -30 38 0 52 27 25 46 -33 24 -55 18 -55
-16z"/>
<path d="M11007 824 c-4 -4 -7 -20 -7 -36 0 -28 12 -34 44 -22 17 6 23 54 7
54 -5 0 -16 2 -23 5 -8 3 -17 2 -21 -1z"/>
<path d="M12532 785 c-15 -32 -12 -38 16 -33 18 3 19 6 8 32 l-12 29 -12 -28z"/>
<path d="M7422 781 c-8 -5 -12 -21 -10 -37 2 -23 8 -29 28 -29 18 0 26 6 28
23 3 22 -13 52 -27 52 -3 0 -12 -4 -19 -9z"/>
<path d="M10831 772 c-15 -28 -3 -64 22 -60 29 4 45 33 31 56 -16 24 -41 27
-53 4z"/>
<path d="M15300 775 c-17 -21 -4 -65 19 -65 30 0 46 26 33 55 -13 28 -34 32
-52 10z"/>
<path d="M2907 784 c-13 -13 -7 -24 14 -24 11 0 19 5 17 12 -5 14 -22 21 -31
12z"/>
<path d="M2907 739 c-10 -6 -15 -14 -12 -20 10 -14 45 -11 45 5 0 21 -12 26
-33 15z"/>
<path d="M3138 743 c-24 -6 -23 -33 1 -33 23 0 38 18 25 29 -5 4 -17 6 -26 4z"/>
<path d="M3547 783 c-14 -13 -6 -23 18 -23 18 0 23 4 19 15 -6 16 -26 20 -37
8z"/>
<path d="M3547 738 c-10 -5 -15 -13 -12 -19 9 -14 42 -11 48 5 7 18 -14 27
-36 14z"/>
<path d="M3727 783 c-4 -3 -7 -19 -7 -35 0 -34 25 -47 48 -25 13 13 13 21 4
42 -11 24 -31 32 -45 18z"/>
<path d="M4644 776 c-3 -8 -4 -25 -2 -38 2 -17 9 -23 28 -23 22 0 25 4 25 35
0 29 -4 36 -23 38 -13 2 -24 -3 -28 -12z"/>
<path d="M4770 770 c-24 -44 19 -82 50 -45 10 12 10 21 2 40 -14 30 -37 32
-52 5z"/>
<path d="M4898 743 c-24 -6 -23 -33 1 -33 23 0 38 18 25 29 -5 4 -17 6 -26 4z"/>
<path d="M5608 743 c-24 -6 -23 -33 1 -33 23 0 38 18 25 29 -5 4 -17 6 -26 4z"/>
<path d="M5828 743 c-10 -3 -18 -11 -18 -19 0 -19 36 -18 43 1 7 17 -1 23 -25
18z"/>
<path d="M7198 743 c-24 -6 -23 -33 1 -33 23 0 38 18 25 29 -5 4 -17 6 -26 4z"/>
<path d="M7536 775 c-4 -11 1 -15 19 -15 16 0 25 6 25 15 0 8 -9 15 -19 15
-10 0 -21 -7 -25 -15z"/>
<path d="M7548 743 c-28 -7 -22 -33 7 -33 15 0 25 6 25 14 0 18 -10 24 -32 19z"/>
<path d="M8057 784 c-14 -14 -6 -24 19 -24 16 0 24 5 22 13 -5 14 -31 21 -41
11z"/>
<path d="M8277 784 c-13 -13 -7 -24 14 -24 11 0 19 5 17 12 -5 14 -22 21 -31
12z"/>
<path d="M8277 739 c-10 -6 -15 -14 -12 -20 10 -14 45 -11 45 5 0 21 -12 26
-33 15z"/>
<path d="M10723 735 c-17 -13 -17 -14 0 -20 20 -8 47 0 47 14 0 16 -28 20 -47
6z"/>
<path d="M11197 783 c-15 -14 -6 -23 23 -23 22 0 28 4 24 15 -6 15 -35 20 -47
8z"/>
<path d="M12890 776 c-7 -10 -10 -26 -6 -42 5 -19 12 -25 29 -22 18 2 22 9 22
38 0 39 -23 52 -45 26z"/>
<path d="M13018 743 c-24 -6 -23 -33 1 -33 23 0 38 18 25 29 -5 4 -17 6 -26 4z"/>
<path d="M13737 783 c-14 -13 -6 -23 18 -23 16 0 25 6 25 15 0 15 -31 21 -43
8z"/>
<path d="M13748 743 c-28 -7 -22 -33 7 -33 15 0 25 6 25 14 0 18 -10 24 -32
19z"/>
<path d="M15018 743 c-24 -6 -23 -33 1 -33 23 0 38 18 25 29 -5 4 -17 6 -26 4z"/>
<path d="M15187 775 c-5 -11 0 -15 19 -15 16 0 24 5 22 13 -7 18 -35 20 -41 2z"/>
<path d="M15198 743 c-28 -7 -22 -33 7 -33 15 0 25 6 25 14 0 18 -10 24 -32
19z"/>
<path d="M15728 743 c-24 -6 -23 -33 1 -33 23 0 38 18 25 29 -5 4 -17 6 -26 4z"/>
<path d="M16098 743 c-24 -6 -23 -33 1 -33 23 0 38 18 25 29 -5 4 -17 6 -26 4z"/>
</g>
</svg>
